<svg width="171" height="170" viewBox="0 0 171 170" fill="none" xmlns="http://www.w3.org/2000/svg">
<g clip-path="url(#clip0_105_761)">
<path d="M117.166 114.519C126.039 101.545 119.306 84.5302 103.096 82.3157C102.977 82.3007 102.865 82.2509 102.774 82.1725C102.682 82.0941 102.616 81.9904 102.583 81.8742C102.55 81.758 102.551 81.6342 102.587 81.518C102.622 81.4018 102.69 81.2981 102.783 81.2197C103.424 80.6903 104.819 80.6008 105.542 80.3026C117.002 75.5679 120.618 61.1701 112.946 51.6113C108.226 45.7284 100.181 43.4469 92.7097 43.432C81.3714 43.4021 70.0008 43.4096 58.5979 43.4543C58.3593 43.4543 58.24 43.5736 58.24 43.8122V124.339C58.24 124.672 58.4065 124.841 58.7396 124.846C69.9436 124.94 81.1477 124.957 92.3518 124.898C101.553 124.853 111.604 122.646 117.166 114.519Z" stroke="#BCA9D9" stroke-width="2"/>
<path d="M102.037 62.9671C100.136 55.0263 91.2782 55.0635 84.7914 55.0039C80.9192 54.9641 77.0345 54.9666 73.1374 55.0114C72.8988 55.0114 72.7795 55.1331 72.7795 55.3767V77.3574C72.7795 77.4563 72.818 77.5511 72.8865 77.621C72.9551 77.6909 73.048 77.7302 73.1449 77.7302C78.7917 77.8147 84.4285 77.6656 90.0554 77.2828C98.4436 76.7087 104.23 72.1157 102.037 62.9671Z" stroke="#BCA9D9" stroke-width="2"/>
<path d="M105.81 97.8542C104.573 91.3898 98.1304 88.6608 92.158 88.4148C85.8352 88.1513 79.4926 88.0817 73.13 88.206C72.8964 88.206 72.7795 88.3228 72.7795 88.5564V112.975C72.7795 113.017 72.7878 113.059 72.8039 113.098C72.8201 113.137 72.8437 113.172 72.8734 113.202C72.9032 113.232 72.9386 113.255 72.9775 113.271C73.0164 113.288 73.0581 113.296 73.1002 113.296C83.33 113.46 109.449 116.83 105.81 97.8542Z" stroke="#BCA9D9" stroke-width="2"/>
<path d="M15.7848 0H155.774C164.612 1.23275 169.568 6.28056 170.641 15.1434V154.946C169.508 163.804 164.522 168.822 155.684 170H15.6953C6.75291 168.862 1.73492 163.814 0.641357 154.857V14.8675C1.86914 6.04942 6.91694 1.09357 15.7848 0ZM117.166 114.519C126.039 101.545 119.306 84.5303 103.096 82.3158C102.977 82.3007 102.865 82.2509 102.774 82.1725C102.682 82.0941 102.616 81.9905 102.583 81.8743C102.55 81.7581 102.551 81.6343 102.587 81.5181C102.622 81.4018 102.69 81.2982 102.783 81.2197C103.424 80.6904 104.819 80.6009 105.542 80.3026C117.002 75.568 120.618 61.1702 112.946 51.6114C108.226 45.7285 100.181 43.4469 92.7098 43.432C81.3715 43.4022 70.0009 43.4096 58.5979 43.4544C58.3593 43.4544 58.24 43.5737 58.24 43.8123V124.339C58.24 124.672 58.4066 124.841 58.7396 124.846C69.9437 124.94 81.1478 124.957 92.3519 124.898C101.553 124.853 111.604 122.646 117.166 114.519Z" fill="#7952B3"/>
<path d="M103.096 82.3157C119.306 84.5302 126.039 101.545 117.166 114.519C111.604 122.646 101.553 124.853 92.3518 124.898C81.1477 124.957 69.9436 124.94 58.7396 124.846C58.4065 124.841 58.24 124.672 58.24 124.339V43.8122C58.24 43.5736 58.3593 43.4543 58.5979 43.4543C70.0008 43.4096 81.3714 43.4021 92.7097 43.432C100.181 43.4469 108.226 45.7284 112.946 51.6113C120.618 61.1701 117.002 75.5679 105.542 80.3026C104.819 80.6008 103.424 80.6903 102.783 81.2197C102.69 81.2981 102.622 81.4018 102.587 81.518C102.551 81.6342 102.55 81.758 102.583 81.8742C102.616 81.9904 102.682 82.0941 102.774 82.1725C102.865 82.2509 102.977 82.3007 103.096 82.3157ZM102.037 62.967C100.136 55.0263 91.2781 55.0635 84.7913 55.0039C80.9191 54.9641 77.0344 54.9666 73.1374 55.0113C72.8988 55.0113 72.7795 55.1331 72.7795 55.3767V77.3574C72.7795 77.4563 72.818 77.5511 72.8865 77.621C72.955 77.6909 73.0479 77.7302 73.1448 77.7302C78.7916 77.8147 84.4284 77.6656 90.0553 77.2828C98.4435 76.7087 104.229 72.1157 102.037 62.967ZM105.81 97.8543C104.572 91.3899 98.1303 88.6609 92.158 88.4149C85.8352 88.1514 79.4925 88.0818 73.1299 88.2061C72.8963 88.2061 72.7795 88.3229 72.7795 88.5565V112.975C72.7795 113.017 72.7878 113.059 72.8039 113.098C72.82 113.137 72.8436 113.172 72.8734 113.202C72.9031 113.232 72.9385 113.255 72.9774 113.272C73.0163 113.288 73.058 113.296 73.1001 113.296C83.3299 113.46 109.449 116.83 105.81 97.8543Z" fill="white"/>
<path d="M84.7914 55.0039C91.2782 55.0635 100.136 55.0263 102.037 62.9671C104.23 72.1157 98.4436 76.7087 90.0554 77.2828C84.4285 77.6656 78.7917 77.8147 73.1449 77.7302C73.048 77.7302 72.9551 77.6909 72.8865 77.621C72.818 77.5511 72.7795 77.4563 72.7795 77.3574V55.3767C72.7795 55.1331 72.8988 55.0114 73.1374 55.0114C77.0345 54.9666 80.9192 54.9641 84.7914 55.0039Z" fill="#7952B3"/>
<path d="M92.158 88.415C98.1304 88.6611 104.573 91.39 105.81 97.8545C109.449 116.83 83.33 113.46 73.1002 113.296C73.0581 113.296 73.0164 113.288 72.9775 113.272C72.9386 113.256 72.9032 113.232 72.8734 113.202C72.8437 113.172 72.8201 113.137 72.8039 113.098C72.7878 113.059 72.7795 113.018 72.7795 112.976V88.5567C72.7795 88.323 72.8964 88.2062 73.13 88.2062C79.4926 88.082 85.8352 88.1516 92.158 88.415Z" fill="#7952B3"/>
</g>
<defs>
<clipPath id="clip0_105_761">
<rect width="170" height="170" fill="white" transform="translate(0.641357)"/>
</clipPath>
</defs>
</svg>
