<svg width="171" height="171" viewBox="0 0 171 171" fill="none" xmlns="http://www.w3.org/2000/svg">
<path d="M24.9922 152.511L11.6393 2.73706H158.371L145.004 152.488L84.9159 169.147L24.9922 152.511Z" fill="#1572B6"/>
<path d="M85.0062 156.414L133.561 142.953L144.984 14.9824H85.0062V156.414Z" fill="#33A9DC"/>
<path d="M85.0062 69.2455H109.314L110.992 50.4352H85.0062V32.0659H131.068L130.627 36.9946L126.112 87.6148H85.0062V69.2455Z" fill="white"/>
<path d="M85.1151 116.952L85.0341 116.976L64.577 111.452L63.2688 96.8015H44.8318L47.4044 125.644L85.0315 136.087L85.1151 136.064V116.952Z" fill="#EBEBEB"/>
<path d="M107.752 86.8379L105.539 111.437L85.0514 116.968V136.079L122.709 125.643L122.985 122.539L126.181 86.8379H107.752Z" fill="white"/>
<path d="M85.0687 32.0659V50.4352H40.6987L40.3308 46.3074L39.4941 36.9946L39.0544 32.0659H85.0687ZM85.0062 69.2481V87.6174H64.8068L64.4389 83.4896L63.6008 74.1768L63.1626 69.2481H85.0062Z" fill="#EBEBEB"/>
</svg>
