<svg width="514" height="447" viewBox="0 0 514 447" fill="none" xmlns="http://www.w3.org/2000/svg">
<rect x="1" y="1.5" width="512" height="444.5" rx="24" stroke="#B1B1B1" stroke-width="2"/>
<path d="M25.748 86.856L22.068 83.224L25.748 79.592H28.052L24.356 83.224L28.052 86.856H25.748ZM33.7849 77.88L33.5769 85.64H32.0569L31.8489 77.88H33.7849ZM32.8729 89.112C32.5422 89.112 32.2649 89 32.0409 88.776C31.8169 88.552 31.7049 88.2747 31.7049 87.944C31.7049 87.6133 31.8169 87.336 32.0409 87.112C32.2649 86.888 32.5422 86.776 32.8729 86.776C33.1929 86.776 33.4649 86.888 33.6889 87.112C33.9129 87.336 34.0249 87.6133 34.0249 87.944C34.0249 88.2747 33.9129 88.552 33.6889 88.776C33.4649 89 33.1929 89.112 32.8729 89.112ZM151.464 79.592H153.768L157.448 83.224L153.768 86.856H151.464L155.16 83.224L151.464 79.592ZM25.748 110.856L22.068 107.224L25.748 103.592H28.052L24.356 107.224L28.052 110.856H25.748ZM118.386 104.632V106.168H109.874V104.632H118.386ZM118.386 108.264V109.8H109.874V108.264H118.386ZM122.52 100.248L122.328 103.528H121.08L120.872 100.248H122.52ZM124.936 100.248L124.744 103.528H123.496L123.288 100.248H124.936ZM147.958 100.248L147.766 103.528H146.518L146.31 100.248H147.958ZM150.374 100.248L150.182 103.528H148.934L148.726 100.248H150.374ZM152.73 103.592H155.034L158.714 107.224L155.034 110.856H152.73L156.426 107.224L152.73 103.592ZM25.748 158.856L22.068 155.224L25.748 151.592H28.052L24.356 155.224L28.052 158.856H25.748ZM74.042 151.592H76.346L80.026 155.224L76.346 158.856H74.042L77.738 155.224L74.042 151.592ZM42.373 182.856L38.693 179.224L42.373 175.592H44.677L40.981 179.224L44.677 182.856H42.373ZM166.167 176.632V178.168H157.655V176.632H166.167ZM166.167 180.264V181.8H157.655V180.264H166.167ZM170.301 172.248L170.109 175.528H168.861L168.653 172.248H170.301ZM172.717 172.248L172.525 175.528H171.277L171.069 172.248H172.717ZM223.348 172.248L223.156 175.528H221.908L221.7 172.248H223.348ZM225.764 172.248L225.572 175.528H224.324L224.116 172.248H225.764ZM228.12 175.592H230.424L234.104 179.224L230.424 182.856H228.12L231.816 179.224L228.12 175.592ZM42.373 206.856L38.693 203.224L42.373 199.592H44.677L40.981 203.224L44.677 206.856H42.373ZM152.557 200.632V202.168H144.045V200.632H152.557ZM152.557 204.264V205.8H144.045V204.264H152.557ZM156.692 196.248L156.5 199.528H155.252L155.044 196.248H156.692ZM159.108 196.248L158.916 199.528H157.668L157.46 196.248H159.108ZM231.52 196.248L231.328 199.528H230.08L229.872 196.248H231.52ZM233.936 196.248L233.744 199.528H232.496L232.288 196.248H233.936ZM311.464 200.632V202.168H302.952V200.632H311.464ZM311.464 204.264V205.8H302.952V204.264H311.464ZM315.598 196.248L315.406 199.528H314.158L313.95 196.248H315.598ZM318.014 196.248L317.822 199.528H316.574L316.366 196.248H318.014ZM484.964 199.592H487.268L490.948 203.224L487.268 206.856H484.964L488.66 203.224L484.964 199.592ZM42.373 230.856L38.693 227.224L42.373 223.592H44.677L40.981 227.224L44.677 230.856H42.373ZM78.9326 223.592H81.2366L84.9166 227.224L81.2366 230.856H78.9326L82.6286 227.224L78.9326 223.592ZM91.4101 221.88C92.5941 221.88 93.6288 222.109 94.5141 222.568C95.4101 223.016 96.0981 223.667 96.5781 224.52C97.0688 225.363 97.3141 226.349 97.3141 227.48C97.3141 228.611 97.0688 229.592 96.5781 230.424C96.0981 231.256 95.4101 231.896 94.5141 232.344C93.6288 232.781 92.5941 233 91.4101 233H87.7781V221.88H91.4101ZM91.4101 231.512C92.7115 231.512 93.7088 231.16 94.4021 230.456C95.0955 229.752 95.4421 228.76 95.4421 227.48C95.4421 226.189 95.0955 225.181 94.4021 224.456C93.7088 223.731 92.7115 223.368 91.4101 223.368H89.6021V231.512H91.4101ZM102.946 233.144C102.114 233.144 101.362 232.957 100.69 232.584C100.018 232.2 99.4899 231.667 99.1059 230.984C98.7219 230.291 98.5299 229.491 98.5299 228.584C98.5299 227.688 98.7272 226.893 99.1219 226.2C99.5165 225.507 100.055 224.973 100.738 224.6C101.421 224.227 102.183 224.04 103.026 224.04C103.869 224.04 104.631 224.227 105.314 224.6C105.997 224.973 106.535 225.507 106.93 226.2C107.325 226.893 107.522 227.688 107.522 228.584C107.522 229.48 107.319 230.275 106.914 230.968C106.509 231.661 105.954 232.2 105.25 232.584C104.557 232.957 103.789 233.144 102.946 233.144ZM102.946 231.56C103.415 231.56 103.853 231.448 104.258 231.224C104.674 231 105.01 230.664 105.266 230.216C105.522 229.768 105.65 229.224 105.65 228.584C105.65 227.944 105.527 227.405 105.282 226.968C105.037 226.52 104.711 226.184 104.306 225.96C103.901 225.736 103.463 225.624 102.994 225.624C102.525 225.624 102.087 225.736 101.682 225.96C101.287 226.184 100.973 226.52 100.738 226.968C100.503 227.405 100.386 227.944 100.386 228.584C100.386 229.533 100.626 230.269 101.106 230.792C101.597 231.304 102.21 231.56 102.946 231.56ZM108.717 228.584C108.717 227.677 108.898 226.883 109.261 226.2C109.634 225.507 110.146 224.973 110.797 224.6C111.448 224.227 112.194 224.04 113.037 224.04C114.104 224.04 114.984 224.296 115.677 224.808C116.381 225.309 116.856 226.029 117.101 226.968H115.133C114.973 226.531 114.717 226.189 114.365 225.944C114.013 225.699 113.57 225.576 113.037 225.576C112.29 225.576 111.693 225.843 111.245 226.376C110.808 226.899 110.589 227.635 110.589 228.584C110.589 229.533 110.808 230.275 111.245 230.808C111.693 231.341 112.29 231.608 113.037 231.608C114.093 231.608 114.792 231.144 115.133 230.216H117.101C116.845 231.112 116.365 231.827 115.661 232.36C114.957 232.883 114.082 233.144 113.037 233.144C112.194 233.144 111.448 232.957 110.797 232.584C110.146 232.2 109.634 231.667 109.261 230.984C108.898 230.291 108.717 229.491 108.717 228.584ZM126.903 224.184V233H125.079V231.96C124.791 232.323 124.412 232.611 123.943 232.824C123.484 233.027 122.993 233.128 122.471 233.128C121.777 233.128 121.153 232.984 120.599 232.696C120.055 232.408 119.623 231.981 119.303 231.416C118.993 230.851 118.839 230.168 118.839 229.368V224.184H120.647V229.096C120.647 229.885 120.844 230.493 121.239 230.92C121.633 231.336 122.172 231.544 122.855 231.544C123.537 231.544 124.076 231.336 124.471 230.92C124.876 230.493 125.079 229.885 125.079 229.096V224.184H126.903ZM139.981 224.04C140.675 224.04 141.293 224.184 141.837 224.472C142.392 224.76 142.824 225.187 143.133 225.752C143.453 226.317 143.613 227 143.613 227.8V233H141.805V228.072C141.805 227.283 141.608 226.68 141.213 226.264C140.819 225.837 140.28 225.624 139.597 225.624C138.915 225.624 138.371 225.837 137.965 226.264C137.571 226.68 137.373 227.283 137.373 228.072V233H135.565V228.072C135.565 227.283 135.368 226.68 134.973 226.264C134.579 225.837 134.04 225.624 133.357 225.624C132.675 225.624 132.131 225.837 131.725 226.264C131.331 226.68 131.133 227.283 131.133 228.072V233H129.309V224.184H131.133V225.192C131.432 224.829 131.811 224.547 132.269 224.344C132.728 224.141 133.219 224.04 133.741 224.04C134.445 224.04 135.075 224.189 135.629 224.488C136.184 224.787 136.611 225.219 136.909 225.784C137.176 225.251 137.592 224.829 138.157 224.52C138.723 224.2 139.331 224.04 139.981 224.04ZM154.014 228.376C154.014 228.707 153.993 229.005 153.95 229.272H147.214C147.268 229.976 147.529 230.541 147.998 230.968C148.468 231.395 149.044 231.608 149.726 231.608C150.708 231.608 151.401 231.197 151.806 230.376H153.774C153.508 231.187 153.022 231.853 152.318 232.376C151.625 232.888 150.761 233.144 149.726 233.144C148.884 233.144 148.126 232.957 147.454 232.584C146.793 232.2 146.27 231.667 145.886 230.984C145.513 230.291 145.326 229.491 145.326 228.584C145.326 227.677 145.508 226.883 145.87 226.2C146.244 225.507 146.761 224.973 147.422 224.6C148.094 224.227 148.862 224.04 149.726 224.04C150.558 224.04 151.3 224.221 151.95 224.584C152.601 224.947 153.108 225.459 153.47 226.12C153.833 226.771 154.014 227.523 154.014 228.376ZM152.11 227.8C152.1 227.128 151.86 226.589 151.39 226.184C150.921 225.779 150.34 225.576 149.646 225.576C149.017 225.576 148.478 225.779 148.03 226.184C147.582 226.579 147.316 227.117 147.23 227.8H152.11ZM160.257 224.04C160.951 224.04 161.569 224.184 162.113 224.472C162.668 224.76 163.1 225.187 163.409 225.752C163.719 226.317 163.873 227 163.873 227.8V233H162.065V228.072C162.065 227.283 161.868 226.68 161.473 226.264C161.079 225.837 160.54 225.624 159.857 225.624C159.175 225.624 158.631 225.837 158.225 226.264C157.831 226.68 157.633 227.283 157.633 228.072V233H155.809V224.184H157.633V225.192C157.932 224.829 158.311 224.547 158.769 224.344C159.239 224.141 159.735 224.04 160.257 224.04ZM168.328 225.672V230.552C168.328 230.883 168.403 231.123 168.552 231.272C168.712 231.411 168.979 231.48 169.352 231.48H170.472V233H169.032C168.211 233 167.581 232.808 167.144 232.424C166.707 232.04 166.488 231.416 166.488 230.552V225.672H165.448V224.184H166.488V221.992H168.328V224.184H170.472V225.672H168.328ZM176.201 230.856L172.521 227.224L176.201 223.592H178.505L174.809 227.224L178.505 230.856H176.201ZM186.664 221.625L182.234 233.977H180.758L185.195 221.625H186.664ZM219.011 223.592H221.315L224.995 227.224L221.315 230.856H219.011L222.707 227.224L219.011 223.592ZM25.748 254.856L22.068 251.224L25.748 247.592H28.052L24.356 251.224L28.052 254.856H25.748ZM36.2109 245.625L31.7812 257.977H30.3047L34.7422 245.625H36.2109ZM80.292 247.592H82.596L86.276 251.224L82.596 254.856H80.292L83.988 251.224L80.292 247.592ZM25.748 302.856L22.068 299.224L25.748 295.592H28.052L24.356 299.224L28.052 302.856H25.748ZM73.292 295.592H75.596L79.276 299.224L75.596 302.856H73.292L76.988 299.224L73.292 295.592ZM42.373 326.856L38.693 323.224L42.373 319.592H44.677L40.981 323.224L44.677 326.856H42.373ZM64.6983 319.592H67.0023L70.6823 323.224L67.0023 326.856H64.6983L68.3943 323.224L64.6983 319.592ZM82.4238 317.88V329H80.5998V324.136H75.3678V329H73.5438V317.88H75.3678V322.648H80.5998V317.88H82.4238ZM92.905 324.376C92.905 324.707 92.8837 325.005 92.841 325.272H86.105C86.1583 325.976 86.4197 326.541 86.889 326.968C87.3583 327.395 87.9343 327.608 88.617 327.608C89.5983 327.608 90.2917 327.197 90.697 326.376H92.665C92.3983 327.187 91.913 327.853 91.209 328.376C90.5157 328.888 89.6517 329.144 88.617 329.144C87.7743 329.144 87.017 328.957 86.345 328.584C85.6837 328.2 85.161 327.667 84.777 326.984C84.4037 326.291 84.217 325.491 84.217 324.584C84.217 323.677 84.3983 322.883 84.761 322.2C85.1343 321.507 85.6517 320.973 86.313 320.6C86.985 320.227 87.753 320.04 88.617 320.04C89.449 320.04 90.1903 320.221 90.841 320.584C91.4917 320.947 91.9983 321.459 92.361 322.12C92.7237 322.771 92.905 323.523 92.905 324.376ZM91.001 323.8C90.9903 323.128 90.7503 322.589 90.281 322.184C89.8117 321.779 89.2303 321.576 88.537 321.576C87.9077 321.576 87.369 321.779 86.921 322.184C86.473 322.579 86.2063 323.117 86.121 323.8H91.001ZM96.524 317.16V329H94.7V317.16H96.524ZM100.743 317.16V329H98.9188V317.16H100.743ZM106.962 329.144C106.13 329.144 105.378 328.957 104.706 328.584C104.034 328.2 103.506 327.667 103.122 326.984C102.738 326.291 102.546 325.491 102.546 324.584C102.546 323.688 102.743 322.893 103.138 322.2C103.532 321.507 104.071 320.973 104.754 320.6C105.436 320.227 106.199 320.04 107.042 320.04C107.884 320.04 108.647 320.227 109.33 320.6C110.012 320.973 110.551 321.507 110.946 322.2C111.34 322.893 111.538 323.688 111.538 324.584C111.538 325.48 111.335 326.275 110.93 326.968C110.524 327.661 109.97 328.2 109.266 328.584C108.572 328.957 107.804 329.144 106.962 329.144ZM106.962 327.56C107.431 327.56 107.868 327.448 108.274 327.224C108.69 327 109.026 326.664 109.282 326.216C109.538 325.768 109.666 325.224 109.666 324.584C109.666 323.944 109.543 323.405 109.298 322.968C109.052 322.52 108.727 322.184 108.322 321.96C107.916 321.736 107.479 321.624 107.01 321.624C106.54 321.624 106.103 321.736 105.698 321.96C105.303 322.184 104.988 322.52 104.754 322.968C104.519 323.405 104.402 323.944 104.402 324.584C104.402 325.533 104.642 326.269 105.122 326.792C105.612 327.304 106.226 327.56 106.962 327.56ZM129.337 320.184L126.601 329H124.681L122.905 322.488L121.129 329H119.209L116.457 320.184H118.313L120.153 327.272L122.025 320.184H123.929L125.721 327.24L127.545 320.184H129.337ZM134.524 329.144C133.692 329.144 132.94 328.957 132.268 328.584C131.596 328.2 131.068 327.667 130.684 326.984C130.3 326.291 130.108 325.491 130.108 324.584C130.108 323.688 130.305 322.893 130.7 322.2C131.095 321.507 131.633 320.973 132.316 320.6C132.999 320.227 133.761 320.04 134.604 320.04C135.447 320.04 136.209 320.227 136.892 320.6C137.575 320.973 138.113 321.507 138.508 322.2C138.903 322.893 139.1 323.688 139.1 324.584C139.1 325.48 138.897 326.275 138.492 326.968C138.087 327.661 137.532 328.2 136.828 328.584C136.135 328.957 135.367 329.144 134.524 329.144ZM134.524 327.56C134.993 327.56 135.431 327.448 135.836 327.224C136.252 327 136.588 326.664 136.844 326.216C137.1 325.768 137.228 325.224 137.228 324.584C137.228 323.944 137.105 323.405 136.86 322.968C136.615 322.52 136.289 322.184 135.884 321.96C135.479 321.736 135.041 321.624 134.572 321.624C134.103 321.624 133.665 321.736 133.26 321.96C132.865 322.184 132.551 322.52 132.316 322.968C132.081 323.405 131.964 323.944 131.964 324.584C131.964 325.533 132.204 326.269 132.684 326.792C133.175 327.304 133.788 327.56 134.524 327.56ZM142.727 321.464C142.994 321.016 143.346 320.669 143.783 320.424C144.231 320.168 144.759 320.04 145.367 320.04V321.928H144.903C144.188 321.928 143.644 322.109 143.271 322.472C142.908 322.835 142.727 323.464 142.727 324.36V329H140.903V320.184H142.727V321.464ZM148.868 317.16V329H147.044V317.16H148.868ZM150.655 324.552C150.655 323.667 150.836 322.883 151.199 322.2C151.572 321.517 152.073 320.989 152.703 320.616C153.343 320.232 154.052 320.04 154.831 320.04C155.407 320.04 155.972 320.168 156.527 320.424C157.092 320.669 157.54 321 157.871 321.416V317.16H159.711V329H157.871V327.672C157.572 328.099 157.156 328.451 156.623 328.728C156.1 329.005 155.497 329.144 154.815 329.144C154.047 329.144 153.343 328.952 152.703 328.568C152.073 328.173 151.572 327.629 151.199 326.936C150.836 326.232 150.655 325.437 150.655 324.552ZM157.871 324.584C157.871 323.976 157.743 323.448 157.487 323C157.241 322.552 156.916 322.211 156.511 321.976C156.105 321.741 155.668 321.624 155.199 321.624C154.729 321.624 154.292 321.741 153.887 321.976C153.481 322.2 153.151 322.536 152.895 322.984C152.649 323.421 152.527 323.944 152.527 324.552C152.527 325.16 152.649 325.693 152.895 326.152C153.151 326.611 153.481 326.963 153.887 327.208C154.303 327.443 154.74 327.56 155.199 327.56C155.668 327.56 156.105 327.443 156.511 327.208C156.916 326.973 157.241 326.632 157.487 326.184C157.743 325.725 157.871 325.192 157.871 324.584ZM164.394 317.88L164.186 325.64H162.666L162.458 317.88H164.394ZM163.482 329.112C163.152 329.112 162.874 329 162.65 328.776C162.426 328.552 162.314 328.275 162.314 327.944C162.314 327.613 162.426 327.336 162.65 327.112C162.874 326.888 163.152 326.776 163.482 326.776C163.802 326.776 164.074 326.888 164.298 327.112C164.522 327.336 164.634 327.613 164.634 327.944C164.634 328.275 164.522 328.552 164.298 328.776C164.074 329 163.802 329.112 163.482 329.112ZM171.295 326.856L167.615 323.224L171.295 319.592H173.599L169.903 323.224L173.599 326.856H171.295ZM181.758 317.625L177.328 329.977H175.852L180.289 317.625H181.758ZM199.87 319.592H202.174L205.854 323.224L202.174 326.856H199.87L203.566 323.224L199.87 319.592ZM25.748 350.856L22.068 347.224L25.748 343.592H28.052L24.356 347.224L28.052 350.856H25.748ZM36.2109 341.625L31.7812 353.977H30.3047L34.7422 341.625H36.2109ZM79.542 343.592H81.846L85.526 347.224L81.846 350.856H79.542L83.238 347.224L79.542 343.592ZM25.748 398.856L22.068 395.224L25.748 391.592H28.052L24.356 395.224L28.052 398.856H25.748ZM36.2109 389.625L31.7812 401.977H30.3047L34.7422 389.625H36.2109ZM75.5264 391.592H77.8304L81.5104 395.224L77.8304 398.856H75.5264L79.2224 395.224L75.5264 391.592Z" fill="white"/>
<path d="M40.2695 77.88C41.4535 77.88 42.4882 78.1093 43.3735 78.568C44.2695 79.016 44.9575 79.6667 45.4375 80.52C45.9282 81.3627 46.1735 82.3493 46.1735 83.48C46.1735 84.6107 45.9282 85.592 45.4375 86.424C44.9575 87.256 44.2695 87.896 43.3735 88.344C42.4882 88.7813 41.4535 89 40.2695 89H36.6375V77.88H40.2695ZM40.2695 87.512C41.5708 87.512 42.5682 87.16 43.2615 86.456C43.9548 85.752 44.3015 84.76 44.3015 83.48C44.3015 82.1893 43.9548 81.1813 43.2615 80.456C42.5682 79.7307 41.5708 79.368 40.2695 79.368H38.4615V87.512H40.2695ZM53.0533 89.112C52.0186 89.112 51.0639 88.872 50.1893 88.392C49.3253 87.9013 48.6373 87.224 48.1253 86.36C47.6239 85.4853 47.3733 84.504 47.3733 83.416C47.3733 82.328 47.6239 81.352 48.1253 80.488C48.6373 79.624 49.3253 78.952 50.1893 78.472C51.0639 77.9813 52.0186 77.736 53.0533 77.736C54.0986 77.736 55.0533 77.9813 55.9173 78.472C56.7919 78.952 57.4799 79.624 57.9813 80.488C58.4826 81.352 58.7333 82.328 58.7333 83.416C58.7333 84.504 58.4826 85.4853 57.9813 86.36C57.4799 87.224 56.7919 87.9013 55.9173 88.392C55.0533 88.872 54.0986 89.112 53.0533 89.112ZM53.0533 87.528C53.7893 87.528 54.4453 87.3627 55.0213 87.032C55.5973 86.6907 56.0453 86.2107 56.3653 85.592C56.6959 84.9627 56.8613 84.2373 56.8613 83.416C56.8613 82.5947 56.6959 81.8747 56.3653 81.256C56.0453 80.6373 55.5973 80.1627 55.0213 79.832C54.4453 79.5013 53.7893 79.336 53.0533 79.336C52.3173 79.336 51.6613 79.5013 51.0853 79.832C50.5093 80.1627 50.0559 80.6373 49.7253 81.256C49.4053 81.8747 49.2453 82.5947 49.2453 83.416C49.2453 84.2373 49.4053 84.9627 49.7253 85.592C50.0559 86.2107 50.5093 86.6907 51.0853 87.032C51.6613 87.3627 52.3173 87.528 53.0533 87.528ZM59.9201 83.416C59.9201 82.328 60.1708 81.352 60.6721 80.488C61.1841 79.624 61.8721 78.952 62.7361 78.472C63.6108 77.9813 64.5655 77.736 65.6001 77.736C66.7841 77.736 67.8348 78.0293 68.7521 78.616C69.6801 79.192 70.3521 80.0133 70.7681 81.08H68.5761C68.2881 80.4933 67.8881 80.056 67.3761 79.768C66.8641 79.48 66.2721 79.336 65.6001 79.336C64.8641 79.336 64.2081 79.5013 63.6321 79.832C63.0561 80.1627 62.6028 80.6373 62.2721 81.256C61.9521 81.8747 61.7921 82.5947 61.7921 83.416C61.7921 84.2373 61.9521 84.9573 62.2721 85.576C62.6028 86.1947 63.0561 86.6747 63.6321 87.016C64.2081 87.3467 64.8641 87.512 65.6001 87.512C66.2721 87.512 66.8641 87.368 67.3761 87.08C67.8881 86.792 68.2881 86.3547 68.5761 85.768H70.7681C70.3521 86.8347 69.6801 87.656 68.7521 88.232C67.8348 88.808 66.7841 89.096 65.6001 89.096C64.5548 89.096 63.6001 88.856 62.7361 88.376C61.8721 87.8853 61.1841 87.208 60.6721 86.344C60.1708 85.48 59.9201 84.504 59.9201 83.416ZM80.0871 77.88V79.368H77.1271V89H75.3031V79.368H72.3271V77.88H80.0871ZM90.1744 77.88L86.4944 84.968V89H84.6704V84.968L80.9744 77.88H83.0064L85.5824 83.336L88.1584 77.88H90.1744ZM99.3979 81.192C99.3979 81.7573 99.2645 82.2907 98.9979 82.792C98.7312 83.2933 98.3045 83.704 97.7179 84.024C97.1312 84.3333 96.3792 84.488 95.4619 84.488H93.4459V89H91.6219V77.88H95.4619C96.3152 77.88 97.0352 78.0293 97.6219 78.328C98.2192 78.616 98.6619 79.0107 98.9499 79.512C99.2485 80.0133 99.3979 80.5733 99.3979 81.192ZM95.4619 83C96.1552 83 96.6725 82.8453 97.0139 82.536C97.3552 82.216 97.5259 81.768 97.5259 81.192C97.5259 79.976 96.8379 79.368 95.4619 79.368H93.4459V83H95.4619ZM102.962 79.352V82.616H106.802V84.104H102.962V87.512H107.282V89H101.138V77.864H107.282V79.352H102.962Z" fill="#9DE5A4"/>
<path d="M118.244 80.04C118.916 80.04 119.514 80.184 120.036 80.472C120.57 80.76 120.986 81.1867 121.284 81.752C121.594 82.3173 121.748 83 121.748 83.8V89H119.94V84.072C119.94 83.2827 119.743 82.68 119.348 82.264C118.954 81.8373 118.415 81.624 117.732 81.624C117.05 81.624 116.506 81.8373 116.1 82.264C115.706 82.68 115.508 83.2827 115.508 84.072V89H113.684V77.16H115.508V81.208C115.818 80.8347 116.207 80.5467 116.676 80.344C117.156 80.1413 117.679 80.04 118.244 80.04ZM126.203 81.672V86.552C126.203 86.8827 126.278 87.1227 126.427 87.272C126.587 87.4107 126.854 87.48 127.227 87.48H128.347V89H126.907C126.086 89 125.456 88.808 125.019 88.424C124.582 88.04 124.363 87.416 124.363 86.552V81.672H123.323V80.184H124.363V77.992H126.203V80.184H128.347V81.672H126.203ZM140.7 80.04C141.393 80.04 142.012 80.184 142.556 80.472C143.111 80.76 143.543 81.1867 143.852 81.752C144.172 82.3173 144.332 83 144.332 83.8V89H142.524V84.072C142.524 83.2827 142.327 82.68 141.932 82.264C141.537 81.8373 140.999 81.624 140.316 81.624C139.633 81.624 139.089 81.8373 138.684 82.264C138.289 82.68 138.092 83.2827 138.092 84.072V89H136.284V84.072C136.284 83.2827 136.087 82.68 135.692 82.264C135.297 81.8373 134.759 81.624 134.076 81.624C133.393 81.624 132.849 81.8373 132.444 82.264C132.049 82.68 131.852 83.2827 131.852 84.072V89H130.028V80.184H131.852V81.192C132.151 80.8293 132.529 80.5467 132.988 80.344C133.447 80.1413 133.937 80.04 134.46 80.04C135.164 80.04 135.793 80.1893 136.348 80.488C136.903 80.7867 137.329 81.2187 137.628 81.784C137.895 81.2507 138.311 80.8293 138.876 80.52C139.441 80.2 140.049 80.04 140.7 80.04ZM148.477 77.16V89H146.653V77.16H148.477ZM74.6646 101.16V113H72.8406V101.16H74.6646ZM76.4514 108.552C76.4514 107.667 76.6327 106.883 76.9954 106.2C77.3687 105.517 77.87 104.989 78.4994 104.616C79.1394 104.232 79.8434 104.04 80.6114 104.04C81.3047 104.04 81.9074 104.179 82.4194 104.456C82.942 104.723 83.358 105.059 83.6674 105.464V104.184H85.5074V113H83.6674V111.688C83.358 112.104 82.9367 112.451 82.4034 112.728C81.87 113.005 81.262 113.144 80.5794 113.144C79.822 113.144 79.1287 112.952 78.4994 112.568C77.87 112.173 77.3687 111.629 76.9954 110.936C76.6327 110.232 76.4514 109.437 76.4514 108.552ZM83.6674 108.584C83.6674 107.976 83.5394 107.448 83.2834 107C83.038 106.552 82.7127 106.211 82.3074 105.976C81.902 105.741 81.4647 105.624 80.9954 105.624C80.526 105.624 80.0887 105.741 79.6834 105.976C79.278 106.2 78.9474 106.536 78.6914 106.984C78.446 107.421 78.3234 107.944 78.3234 108.552C78.3234 109.16 78.446 109.693 78.6914 110.152C78.9474 110.611 79.278 110.963 79.6834 111.208C80.0994 111.443 80.5367 111.56 80.9954 111.56C81.4647 111.56 81.902 111.443 82.3074 111.208C82.7127 110.973 83.038 110.632 83.2834 110.184C83.5394 109.725 83.6674 109.192 83.6674 108.584ZM92.3511 104.04C93.0445 104.04 93.6631 104.184 94.2071 104.472C94.7618 104.76 95.1938 105.187 95.5031 105.752C95.8125 106.317 95.9671 107 95.9671 107.8V113H94.1591V108.072C94.1591 107.283 93.9618 106.68 93.5671 106.264C93.1725 105.837 92.6338 105.624 91.9511 105.624C91.2685 105.624 90.7245 105.837 90.3191 106.264C89.9245 106.68 89.7271 107.283 89.7271 108.072V113H87.9031V104.184H89.7271V105.192C90.0258 104.829 90.4045 104.547 90.8631 104.344C91.3325 104.141 91.8285 104.04 92.3511 104.04ZM101.846 104.04C102.528 104.04 103.131 104.179 103.654 104.456C104.187 104.723 104.603 105.059 104.902 105.464V104.184H106.742V113.144C106.742 113.955 106.571 114.675 106.23 115.304C105.888 115.944 105.392 116.445 104.742 116.808C104.102 117.171 103.334 117.352 102.438 117.352C101.243 117.352 100.251 117.069 99.4618 116.504C98.6724 115.949 98.2244 115.192 98.1178 114.232H99.9258C100.064 114.691 100.358 115.059 100.806 115.336C101.264 115.624 101.808 115.768 102.438 115.768C103.174 115.768 103.766 115.544 104.214 115.096C104.672 114.648 104.902 113.997 104.902 113.144V111.672C104.592 112.088 104.171 112.44 103.638 112.728C103.115 113.005 102.518 113.144 101.846 113.144C101.078 113.144 100.374 112.952 99.7338 112.568C99.1044 112.173 98.6031 111.629 98.2298 110.936C97.8671 110.232 97.6858 109.437 97.6858 108.552C97.6858 107.667 97.8671 106.883 98.2298 106.2C98.6031 105.517 99.1044 104.989 99.7338 104.616C100.374 104.232 101.078 104.04 101.846 104.04ZM104.902 108.584C104.902 107.976 104.774 107.448 104.518 107C104.272 106.552 103.947 106.211 103.542 105.976C103.136 105.741 102.699 105.624 102.23 105.624C101.76 105.624 101.323 105.741 100.918 105.976C100.512 106.2 100.182 106.536 99.9258 106.984C99.6804 107.421 99.5578 107.944 99.5578 108.552C99.5578 109.16 99.6804 109.693 99.9258 110.152C100.182 110.611 100.512 110.963 100.918 111.208C101.334 111.443 101.771 111.56 102.23 111.56C102.699 111.56 103.136 111.443 103.542 111.208C103.947 110.973 104.272 110.632 104.518 110.184C104.774 109.725 104.902 109.192 104.902 108.584ZM94.967 180.584C94.967 179.677 95.1483 178.883 95.511 178.2C95.8843 177.507 96.3963 176.973 97.047 176.6C97.6977 176.227 98.4443 176.04 99.287 176.04C100.354 176.04 101.234 176.296 101.927 176.808C102.631 177.309 103.106 178.029 103.351 178.968H101.383C101.223 178.531 100.967 178.189 100.615 177.944C100.263 177.699 99.8203 177.576 99.287 177.576C98.5403 177.576 97.943 177.843 97.495 178.376C97.0577 178.899 96.839 179.635 96.839 180.584C96.839 181.533 97.0577 182.275 97.495 182.808C97.943 183.341 98.5403 183.608 99.287 183.608C100.343 183.608 101.042 183.144 101.383 182.216H103.351C103.095 183.112 102.615 183.827 101.911 184.36C101.207 184.883 100.332 185.144 99.287 185.144C98.4443 185.144 97.6977 184.957 97.047 184.584C96.3963 184.2 95.8843 183.667 95.511 182.984C95.1483 182.291 94.967 181.491 94.967 180.584ZM109.729 176.04C110.401 176.04 110.998 176.184 111.521 176.472C112.054 176.76 112.47 177.187 112.769 177.752C113.078 178.317 113.233 179 113.233 179.8V185H111.425V180.072C111.425 179.283 111.227 178.68 110.833 178.264C110.438 177.837 109.899 177.624 109.217 177.624C108.534 177.624 107.99 177.837 107.585 178.264C107.19 178.68 106.993 179.283 106.993 180.072V185H105.169V173.16H106.993V177.208C107.302 176.835 107.691 176.547 108.161 176.344C108.641 176.141 109.163 176.04 109.729 176.04ZM114.951 180.552C114.951 179.667 115.133 178.883 115.495 178.2C115.869 177.517 116.37 176.989 116.999 176.616C117.639 176.232 118.343 176.04 119.111 176.04C119.805 176.04 120.407 176.179 120.919 176.456C121.442 176.723 121.858 177.059 122.167 177.464V176.184H124.007V185H122.167V183.688C121.858 184.104 121.437 184.451 120.903 184.728C120.37 185.005 119.762 185.144 119.079 185.144C118.322 185.144 117.629 184.952 116.999 184.568C116.37 184.173 115.869 183.629 115.495 182.936C115.133 182.232 114.951 181.437 114.951 180.552ZM122.167 180.584C122.167 179.976 122.039 179.448 121.783 179C121.538 178.552 121.213 178.211 120.807 177.976C120.402 177.741 119.965 177.624 119.495 177.624C119.026 177.624 118.589 177.741 118.183 177.976C117.778 178.2 117.447 178.536 117.191 178.984C116.946 179.421 116.823 179.944 116.823 180.552C116.823 181.16 116.946 181.693 117.191 182.152C117.447 182.611 117.778 182.963 118.183 183.208C118.599 183.443 119.037 183.56 119.495 183.56C119.965 183.56 120.402 183.443 120.807 183.208C121.213 182.973 121.538 182.632 121.783 182.184C122.039 181.725 122.167 181.192 122.167 180.584ZM128.227 177.464C128.494 177.016 128.846 176.669 129.283 176.424C129.731 176.168 130.259 176.04 130.867 176.04V177.928H130.403C129.688 177.928 129.144 178.109 128.771 178.472C128.408 178.835 128.227 179.464 128.227 180.36V185H126.403V176.184H128.227V177.464ZM135.744 185.144C135.05 185.144 134.426 185.021 133.872 184.776C133.328 184.52 132.896 184.179 132.576 183.752C132.256 183.315 132.085 182.829 132.064 182.296H133.952C133.984 182.669 134.16 182.984 134.48 183.24C134.81 183.485 135.221 183.608 135.712 183.608C136.224 183.608 136.618 183.512 136.896 183.32C137.184 183.117 137.328 182.861 137.328 182.552C137.328 182.221 137.168 181.976 136.848 181.816C136.538 181.656 136.042 181.48 135.36 181.288C134.698 181.107 134.16 180.931 133.744 180.76C133.328 180.589 132.965 180.328 132.656 179.976C132.357 179.624 132.208 179.16 132.208 178.584C132.208 178.115 132.346 177.688 132.624 177.304C132.901 176.909 133.296 176.6 133.808 176.376C134.33 176.152 134.928 176.04 135.6 176.04C136.602 176.04 137.408 176.296 138.016 176.808C138.634 177.309 138.965 177.997 139.008 178.872H137.184C137.152 178.477 136.992 178.163 136.704 177.928C136.416 177.693 136.026 177.576 135.536 177.576C135.056 177.576 134.688 177.667 134.432 177.848C134.176 178.029 134.048 178.269 134.048 178.568C134.048 178.803 134.133 179 134.304 179.16C134.474 179.32 134.682 179.448 134.928 179.544C135.173 179.629 135.536 179.741 136.016 179.88C136.656 180.051 137.178 180.227 137.584 180.408C138 180.579 138.357 180.835 138.656 181.176C138.954 181.517 139.109 181.971 139.12 182.536C139.12 183.037 138.981 183.485 138.704 183.88C138.426 184.275 138.032 184.584 137.52 184.808C137.018 185.032 136.426 185.144 135.744 185.144ZM149.171 180.376C149.171 180.707 149.149 181.005 149.107 181.272H142.371C142.424 181.976 142.685 182.541 143.155 182.968C143.624 183.395 144.2 183.608 144.883 183.608C145.864 183.608 146.557 183.197 146.963 182.376H148.931C148.664 183.187 148.179 183.853 147.475 184.376C146.781 184.888 145.917 185.144 144.883 185.144C144.04 185.144 143.283 184.957 142.611 184.584C141.949 184.2 141.427 183.667 141.043 182.984C140.669 182.291 140.483 181.491 140.483 180.584C140.483 179.677 140.664 178.883 141.027 178.2C141.4 177.507 141.917 176.973 142.579 176.6C143.251 176.227 144.019 176.04 144.883 176.04C145.715 176.04 146.456 176.221 147.107 176.584C147.757 176.947 148.264 177.459 148.627 178.12C148.989 178.771 149.171 179.523 149.171 180.376ZM147.267 179.8C147.256 179.128 147.016 178.589 146.547 178.184C146.077 177.779 145.496 177.576 144.803 177.576C144.173 177.576 143.635 177.779 143.187 178.184C142.739 178.579 142.472 179.117 142.387 179.8H147.267ZM153.094 177.672V182.552C153.094 182.883 153.168 183.123 153.318 183.272C153.478 183.411 153.744 183.48 154.118 183.48H155.238V185H153.798C152.976 185 152.347 184.808 151.91 184.424C151.472 184.04 151.254 183.416 151.254 182.552V177.672H150.214V176.184H151.254V173.992H153.094V176.184H155.238V177.672H153.094ZM100.023 200.04C100.716 200.04 101.335 200.184 101.879 200.472C102.434 200.76 102.866 201.187 103.175 201.752C103.484 202.317 103.639 203 103.639 203.8V209H101.831V204.072C101.831 203.283 101.634 202.68 101.239 202.264C100.844 201.837 100.306 201.624 99.623 201.624C98.9403 201.624 98.3963 201.837 97.991 202.264C97.5963 202.68 97.399 203.283 97.399 204.072V209H95.575V200.184H97.399V201.192C97.6977 200.829 98.0763 200.547 98.535 200.344C99.0043 200.141 99.5003 200.04 100.023 200.04ZM105.358 204.552C105.358 203.667 105.539 202.883 105.902 202.2C106.275 201.517 106.776 200.989 107.406 200.616C108.046 200.232 108.75 200.04 109.518 200.04C110.211 200.04 110.814 200.179 111.326 200.456C111.848 200.723 112.264 201.059 112.574 201.464V200.184H114.414V209H112.574V207.688C112.264 208.104 111.843 208.451 111.31 208.728C110.776 209.005 110.168 209.144 109.486 209.144C108.728 209.144 108.035 208.952 107.406 208.568C106.776 208.173 106.275 207.629 105.902 206.936C105.539 206.232 105.358 205.437 105.358 204.552ZM112.574 204.584C112.574 203.976 112.446 203.448 112.19 203C111.944 202.552 111.619 202.211 111.214 201.976C110.808 201.741 110.371 201.624 109.902 201.624C109.432 201.624 108.995 201.741 108.59 201.976C108.184 202.2 107.854 202.536 107.598 202.984C107.352 203.421 107.23 203.944 107.23 204.552C107.23 205.16 107.352 205.693 107.598 206.152C107.854 206.611 108.184 206.963 108.59 207.208C109.006 207.443 109.443 207.56 109.902 207.56C110.371 207.56 110.808 207.443 111.214 207.208C111.619 206.973 111.944 206.632 112.19 206.184C112.446 205.725 112.574 205.192 112.574 204.584ZM127.481 200.04C128.175 200.04 128.793 200.184 129.337 200.472C129.892 200.76 130.324 201.187 130.633 201.752C130.953 202.317 131.113 203 131.113 203.8V209H129.305V204.072C129.305 203.283 129.108 202.68 128.713 202.264C128.319 201.837 127.78 201.624 127.097 201.624C126.415 201.624 125.871 201.837 125.465 202.264C125.071 202.68 124.873 203.283 124.873 204.072V209H123.065V204.072C123.065 203.283 122.868 202.68 122.473 202.264C122.079 201.837 121.54 201.624 120.857 201.624C120.175 201.624 119.631 201.837 119.225 202.264C118.831 202.68 118.633 203.283 118.633 204.072V209H116.809V200.184H118.633V201.192C118.932 200.829 119.311 200.547 119.769 200.344C120.228 200.141 120.719 200.04 121.241 200.04C121.945 200.04 122.575 200.189 123.129 200.488C123.684 200.787 124.111 201.219 124.409 201.784C124.676 201.251 125.092 200.829 125.657 200.52C126.223 200.2 126.831 200.04 127.481 200.04ZM141.514 204.376C141.514 204.707 141.493 205.005 141.45 205.272H134.714C134.768 205.976 135.029 206.541 135.498 206.968C135.968 207.395 136.544 207.608 137.226 207.608C138.208 207.608 138.901 207.197 139.306 206.376H141.274C141.008 207.187 140.522 207.853 139.818 208.376C139.125 208.888 138.261 209.144 137.226 209.144C136.384 209.144 135.626 208.957 134.954 208.584C134.293 208.2 133.77 207.667 133.386 206.984C133.013 206.291 132.826 205.491 132.826 204.584C132.826 203.677 133.008 202.883 133.37 202.2C133.744 201.507 134.261 200.973 134.922 200.6C135.594 200.227 136.362 200.04 137.226 200.04C138.058 200.04 138.8 200.221 139.45 200.584C140.101 200.947 140.608 201.459 140.97 202.12C141.333 202.771 141.514 203.523 141.514 204.376ZM139.61 203.8C139.6 203.128 139.36 202.589 138.89 202.184C138.421 201.779 137.84 201.576 137.146 201.576C136.517 201.576 135.978 201.779 135.53 202.184C135.082 202.579 134.816 203.117 134.73 203.8H139.61ZM239.248 204.584C239.248 203.677 239.43 202.883 239.792 202.2C240.166 201.507 240.678 200.973 241.328 200.6C241.979 200.227 242.726 200.04 243.568 200.04C244.635 200.04 245.515 200.296 246.208 200.808C246.912 201.309 247.387 202.029 247.632 202.968H245.664C245.504 202.531 245.248 202.189 244.896 201.944C244.544 201.699 244.102 201.576 243.568 201.576C242.822 201.576 242.224 201.843 241.776 202.376C241.339 202.899 241.12 203.635 241.12 204.584C241.12 205.533 241.339 206.275 241.776 206.808C242.224 207.341 242.822 207.608 243.568 207.608C244.624 207.608 245.323 207.144 245.664 206.216H247.632C247.376 207.112 246.896 207.827 246.192 208.36C245.488 208.883 244.614 209.144 243.568 209.144C242.726 209.144 241.979 208.957 241.328 208.584C240.678 208.2 240.166 207.667 239.792 206.984C239.43 206.291 239.248 205.491 239.248 204.584ZM253.274 209.144C252.442 209.144 251.69 208.957 251.018 208.584C250.346 208.2 249.818 207.667 249.434 206.984C249.05 206.291 248.858 205.491 248.858 204.584C248.858 203.688 249.055 202.893 249.45 202.2C249.845 201.507 250.383 200.973 251.066 200.6C251.749 200.227 252.511 200.04 253.354 200.04C254.197 200.04 254.959 200.227 255.642 200.6C256.325 200.973 256.863 201.507 257.258 202.2C257.653 202.893 257.85 203.688 257.85 204.584C257.85 205.48 257.647 206.275 257.242 206.968C256.837 207.661 256.282 208.2 255.578 208.584C254.885 208.957 254.117 209.144 253.274 209.144ZM253.274 207.56C253.743 207.56 254.181 207.448 254.586 207.224C255.002 207 255.338 206.664 255.594 206.216C255.85 205.768 255.978 205.224 255.978 204.584C255.978 203.944 255.855 203.405 255.61 202.968C255.365 202.52 255.039 202.184 254.634 201.96C254.229 201.736 253.791 201.624 253.322 201.624C252.853 201.624 252.415 201.736 252.01 201.96C251.615 202.184 251.301 202.52 251.066 202.968C250.831 203.405 250.714 203.944 250.714 204.584C250.714 205.533 250.954 206.269 251.434 206.792C251.925 207.304 252.538 207.56 253.274 207.56ZM264.101 200.04C264.794 200.04 265.413 200.184 265.957 200.472C266.512 200.76 266.944 201.187 267.253 201.752C267.562 202.317 267.717 203 267.717 203.8V209H265.909V204.072C265.909 203.283 265.712 202.68 265.317 202.264C264.922 201.837 264.384 201.624 263.701 201.624C263.018 201.624 262.474 201.837 262.069 202.264C261.674 202.68 261.477 203.283 261.477 204.072V209H259.653V200.184H261.477V201.192C261.776 200.829 262.154 200.547 262.613 200.344C263.082 200.141 263.578 200.04 264.101 200.04ZM272.172 201.672V206.552C272.172 206.883 272.246 207.123 272.396 207.272C272.556 207.411 272.822 207.48 273.196 207.48H274.316V209H272.876C272.054 209 271.425 208.808 270.988 208.424C270.55 208.04 270.332 207.416 270.332 206.552V201.672H269.292V200.184H270.332V197.992H272.172V200.184H274.316V201.672H272.172ZM284.077 204.376C284.077 204.707 284.056 205.005 284.013 205.272H277.277C277.33 205.976 277.592 206.541 278.061 206.968C278.53 207.395 279.106 207.608 279.789 207.608C280.77 207.608 281.464 207.197 281.869 206.376H283.837C283.57 207.187 283.085 207.853 282.381 208.376C281.688 208.888 280.824 209.144 279.789 209.144C278.946 209.144 278.189 208.957 277.517 208.584C276.856 208.2 276.333 207.667 275.949 206.984C275.576 206.291 275.389 205.491 275.389 204.584C275.389 203.677 275.57 202.883 275.933 202.2C276.306 201.507 276.824 200.973 277.485 200.6C278.157 200.227 278.925 200.04 279.789 200.04C280.621 200.04 281.362 200.221 282.013 200.584C282.664 200.947 283.17 201.459 283.533 202.12C283.896 202.771 284.077 203.523 284.077 204.376ZM282.173 203.8C282.162 203.128 281.922 202.589 281.453 202.184C280.984 201.779 280.402 201.576 279.709 201.576C279.08 201.576 278.541 201.779 278.093 202.184C277.645 202.579 277.378 203.117 277.293 203.8H282.173ZM290.32 200.04C291.013 200.04 291.632 200.184 292.176 200.472C292.731 200.76 293.163 201.187 293.472 201.752C293.781 202.317 293.936 203 293.936 203.8V209H292.128V204.072C292.128 203.283 291.931 202.68 291.536 202.264C291.141 201.837 290.603 201.624 289.92 201.624C289.237 201.624 288.693 201.837 288.288 202.264C287.893 202.68 287.696 203.283 287.696 204.072V209H285.872V200.184H287.696V201.192C287.995 200.829 288.373 200.547 288.832 200.344C289.301 200.141 289.797 200.04 290.32 200.04ZM298.391 201.672V206.552C298.391 206.883 298.465 207.123 298.615 207.272C298.775 207.411 299.041 207.48 299.415 207.48H300.535V209H299.095C298.273 209 297.644 208.808 297.207 208.424C296.769 208.04 296.551 207.416 296.551 206.552V201.672H295.511V200.184H296.551V197.992H298.391V200.184H300.535V201.672H298.391Z" fill="#AD95EA"/>
<path d="M36.0569 104.04C36.7289 104.04 37.3262 104.184 37.8489 104.472C38.3822 104.76 38.7982 105.187 39.0969 105.752C39.4062 106.317 39.5609 107 39.5609 107.8V113H37.7529V108.072C37.7529 107.283 37.5555 106.68 37.1609 106.264C36.7662 105.837 36.2275 105.624 35.5449 105.624C34.8622 105.624 34.3182 105.837 33.9129 106.264C33.5182 106.68 33.3209 107.283 33.3209 108.072V113H31.4969V101.16H33.3209V105.208C33.6302 104.835 34.0195 104.547 34.4889 104.344C34.9689 104.141 35.4915 104.04 36.0569 104.04ZM44.0155 105.672V110.552C44.0155 110.883 44.0902 111.123 44.2395 111.272C44.3995 111.411 44.6662 111.48 45.0395 111.48H46.1595V113H44.7195C43.8982 113 43.2688 112.808 42.8315 112.424C42.3942 112.04 42.1755 111.416 42.1755 110.552V105.672H41.1355V104.184H42.1755V101.992H44.0155V104.184H46.1595V105.672H44.0155ZM58.5126 104.04C59.206 104.04 59.8246 104.184 60.3686 104.472C60.9233 104.76 61.3553 105.187 61.6646 105.752C61.9846 106.317 62.1446 107 62.1446 107.8V113H60.3366V108.072C60.3366 107.283 60.1393 106.68 59.7446 106.264C59.35 105.837 58.8113 105.624 58.1286 105.624C57.446 105.624 56.902 105.837 56.4966 106.264C56.102 106.68 55.9046 107.283 55.9046 108.072V113H54.0966V108.072C54.0966 107.283 53.8993 106.68 53.5046 106.264C53.11 105.837 52.5713 105.624 51.8886 105.624C51.206 105.624 50.662 105.837 50.2566 106.264C49.862 106.68 49.6646 107.283 49.6646 108.072V113H47.8406V104.184H49.6646V105.192C49.9633 104.829 50.342 104.547 50.8006 104.344C51.2593 104.141 51.75 104.04 52.2726 104.04C52.9766 104.04 53.606 104.189 54.1606 104.488C54.7153 104.787 55.142 105.219 55.4406 105.784C55.7073 105.251 56.1233 104.829 56.6886 104.52C57.254 104.2 57.862 104.04 58.5126 104.04ZM66.2896 101.16V113H64.4656V101.16H66.2896ZM36.0569 152.04C36.7289 152.04 37.3262 152.184 37.8489 152.472C38.3822 152.76 38.7982 153.187 39.0969 153.752C39.4062 154.317 39.5609 155 39.5609 155.8V161H37.7529V156.072C37.7529 155.283 37.5555 154.68 37.1609 154.264C36.7662 153.837 36.2275 153.624 35.5449 153.624C34.8622 153.624 34.3182 153.837 33.9129 154.264C33.5182 154.68 33.3209 155.283 33.3209 156.072V161H31.4969V149.16H33.3209V153.208C33.6302 152.835 34.0195 152.547 34.4889 152.344C34.9689 152.141 35.4915 152.04 36.0569 152.04ZM49.9675 156.376C49.9675 156.707 49.9462 157.005 49.9035 157.272H43.1675C43.2208 157.976 43.4822 158.541 43.9515 158.968C44.4208 159.395 44.9968 159.608 45.6795 159.608C46.6608 159.608 47.3542 159.197 47.7595 158.376H49.7275C49.4608 159.187 48.9755 159.853 48.2715 160.376C47.5782 160.888 46.7142 161.144 45.6795 161.144C44.8368 161.144 44.0795 160.957 43.4075 160.584C42.7462 160.2 42.2235 159.667 41.8395 158.984C41.4662 158.291 41.2795 157.491 41.2795 156.584C41.2795 155.677 41.4608 154.883 41.8235 154.2C42.1968 153.507 42.7142 152.973 43.3755 152.6C44.0475 152.227 44.8155 152.04 45.6795 152.04C46.5115 152.04 47.2528 152.221 47.9035 152.584C48.5542 152.947 49.0608 153.459 49.4235 154.12C49.7862 154.771 49.9675 155.523 49.9675 156.376ZM48.0635 155.8C48.0528 155.128 47.8128 154.589 47.3435 154.184C46.8742 153.779 46.2928 153.576 45.5995 153.576C44.9702 153.576 44.4315 153.779 43.9835 154.184C43.5355 154.579 43.2688 155.117 43.1835 155.8H48.0635ZM51.1545 156.552C51.1545 155.667 51.3358 154.883 51.6985 154.2C52.0718 153.517 52.5732 152.989 53.2025 152.616C53.8425 152.232 54.5465 152.04 55.3145 152.04C56.0078 152.04 56.6105 152.179 57.1225 152.456C57.6452 152.723 58.0612 153.059 58.3705 153.464V152.184H60.2105V161H58.3705V159.688C58.0612 160.104 57.6398 160.451 57.1065 160.728C56.5732 161.005 55.9652 161.144 55.2825 161.144C54.5252 161.144 53.8318 160.952 53.2025 160.568C52.5732 160.173 52.0718 159.629 51.6985 158.936C51.3358 158.232 51.1545 157.437 51.1545 156.552ZM58.3705 156.584C58.3705 155.976 58.2425 155.448 57.9865 155C57.7412 154.552 57.4158 154.211 57.0105 153.976C56.6052 153.741 56.1678 153.624 55.6985 153.624C55.2292 153.624 54.7918 153.741 54.3865 153.976C53.9812 154.2 53.6505 154.536 53.3945 154.984C53.1492 155.421 53.0265 155.944 53.0265 156.552C53.0265 157.16 53.1492 157.693 53.3945 158.152C53.6505 158.611 53.9812 158.963 54.3865 159.208C54.8025 159.443 55.2398 159.56 55.6985 159.56C56.1678 159.56 56.6052 159.443 57.0105 159.208C57.4158 158.973 57.7412 158.632 57.9865 158.184C58.2425 157.725 58.3705 157.192 58.3705 156.584ZM61.9983 156.552C61.9983 155.667 62.1796 154.883 62.5423 154.2C62.9156 153.517 63.4169 152.989 64.0463 152.616C64.6863 152.232 65.3956 152.04 66.1743 152.04C66.7503 152.04 67.3156 152.168 67.8703 152.424C68.4356 152.669 68.8836 153 69.2143 153.416V149.16H71.0543V161H69.2143V159.672C68.9156 160.099 68.4996 160.451 67.9663 160.728C67.4436 161.005 66.8409 161.144 66.1583 161.144C65.3903 161.144 64.6863 160.952 64.0463 160.568C63.4169 160.173 62.9156 159.629 62.5423 158.936C62.1796 158.232 61.9983 157.437 61.9983 156.552ZM69.2143 156.584C69.2143 155.976 69.0863 155.448 68.8303 155C68.5849 154.552 68.2596 154.211 67.8543 153.976C67.4489 153.741 67.0116 153.624 66.5423 153.624C66.0729 153.624 65.6356 153.741 65.2303 153.976C64.8249 154.2 64.4943 154.536 64.2383 154.984C63.9929 155.421 63.8703 155.944 63.8703 156.552C63.8703 157.16 63.9929 157.693 64.2383 158.152C64.4943 158.611 64.8249 158.963 65.2303 159.208C65.6463 159.443 66.0836 159.56 66.5423 159.56C67.0116 159.56 67.4489 159.443 67.8543 159.208C68.2596 158.973 68.5849 158.632 68.8303 158.184C69.0863 157.725 69.2143 157.192 69.2143 156.584ZM58.7939 176.04C59.4872 176.04 60.1059 176.184 60.6499 176.472C61.2045 176.76 61.6365 177.187 61.9459 177.752C62.2659 178.317 62.4259 179 62.4259 179.8V185H60.6179V180.072C60.6179 179.283 60.4205 178.68 60.0259 178.264C59.6312 177.837 59.0925 177.624 58.4099 177.624C57.7272 177.624 57.1832 177.837 56.7779 178.264C56.3832 178.68 56.1859 179.283 56.1859 180.072V185H54.3779V180.072C54.3779 179.283 54.1805 178.68 53.7859 178.264C53.3912 177.837 52.8525 177.624 52.1699 177.624C51.4872 177.624 50.9432 177.837 50.5379 178.264C50.1432 178.68 49.9459 179.283 49.9459 180.072V185H48.1219V176.184H49.9459V177.192C50.2445 176.829 50.6232 176.547 51.0819 176.344C51.5405 176.141 52.0312 176.04 52.5539 176.04C53.2579 176.04 53.8872 176.189 54.4419 176.488C54.9965 176.787 55.4232 177.219 55.7219 177.784C55.9885 177.251 56.4045 176.829 56.9699 176.52C57.5352 176.2 58.1432 176.04 58.7939 176.04ZM72.8269 180.376C72.8269 180.707 72.8055 181.005 72.7629 181.272H66.0269C66.0802 181.976 66.3415 182.541 66.8109 182.968C67.2802 183.395 67.8562 183.608 68.5389 183.608C69.5202 183.608 70.2135 183.197 70.6189 182.376H72.5869C72.3202 183.187 71.8349 183.853 71.1309 184.376C70.4375 184.888 69.5735 185.144 68.5389 185.144C67.6962 185.144 66.9389 184.957 66.2669 184.584C65.6055 184.2 65.0829 183.667 64.6989 182.984C64.3255 182.291 64.1389 181.491 64.1389 180.584C64.1389 179.677 64.3202 178.883 64.6829 178.2C65.0562 177.507 65.5735 176.973 66.2349 176.6C66.9069 176.227 67.6749 176.04 68.5389 176.04C69.3709 176.04 70.1122 176.221 70.7629 176.584C71.4135 176.947 71.9202 177.459 72.2829 178.12C72.6455 178.771 72.8269 179.523 72.8269 180.376ZM70.9229 179.8C70.9122 179.128 70.6722 178.589 70.2029 178.184C69.7335 177.779 69.1522 177.576 68.4589 177.576C67.8295 177.576 67.2909 177.779 66.8429 178.184C66.3949 178.579 66.1282 179.117 66.0429 179.8H70.9229ZM76.7499 177.672V182.552C76.7499 182.883 76.8245 183.123 76.9739 183.272C77.1339 183.411 77.4005 183.48 77.7739 183.48H78.8939V185H77.4539C76.6325 185 76.0032 184.808 75.5659 184.424C75.1285 184.04 74.9099 183.416 74.9099 182.552V177.672H73.8699V176.184H74.9099V173.992H76.7499V176.184H78.8939V177.672H76.7499ZM79.967 180.552C79.967 179.667 80.1483 178.883 80.511 178.2C80.8843 177.517 81.3857 176.989 82.015 176.616C82.655 176.232 83.359 176.04 84.127 176.04C84.8203 176.04 85.423 176.179 85.935 176.456C86.4577 176.723 86.8737 177.059 87.183 177.464V176.184H89.023V185H87.183V183.688C86.8737 184.104 86.4523 184.451 85.919 184.728C85.3857 185.005 84.7777 185.144 84.095 185.144C83.3377 185.144 82.6443 184.952 82.015 184.568C81.3857 184.173 80.8843 183.629 80.511 182.936C80.1483 182.232 79.967 181.437 79.967 180.552ZM87.183 180.584C87.183 179.976 87.055 179.448 86.799 179C86.5537 178.552 86.2283 178.211 85.823 177.976C85.4177 177.741 84.9803 177.624 84.511 177.624C84.0417 177.624 83.6043 177.741 83.199 177.976C82.7937 178.2 82.463 178.536 82.207 178.984C81.9617 179.421 81.839 179.944 81.839 180.552C81.839 181.16 81.9617 181.693 82.207 182.152C82.463 182.611 82.7937 182.963 83.199 183.208C83.615 183.443 84.0523 183.56 84.511 183.56C84.9803 183.56 85.4177 183.443 85.823 183.208C86.2283 182.973 86.5537 182.632 86.799 182.184C87.055 181.725 87.183 181.192 87.183 180.584ZM58.7939 200.04C59.4872 200.04 60.1059 200.184 60.6499 200.472C61.2045 200.76 61.6365 201.187 61.9459 201.752C62.2659 202.317 62.4259 203 62.4259 203.8V209H60.6179V204.072C60.6179 203.283 60.4205 202.68 60.0259 202.264C59.6312 201.837 59.0925 201.624 58.4099 201.624C57.7272 201.624 57.1832 201.837 56.7779 202.264C56.3832 202.68 56.1859 203.283 56.1859 204.072V209H54.3779V204.072C54.3779 203.283 54.1805 202.68 53.7859 202.264C53.3912 201.837 52.8525 201.624 52.1699 201.624C51.4872 201.624 50.9432 201.837 50.5379 202.264C50.1432 202.68 49.9459 203.283 49.9459 204.072V209H48.1219V200.184H49.9459V201.192C50.2445 200.829 50.6232 200.547 51.0819 200.344C51.5405 200.141 52.0312 200.04 52.5539 200.04C53.2579 200.04 53.8872 200.189 54.4419 200.488C54.9965 200.787 55.4232 201.219 55.7219 201.784C55.9885 201.251 56.4045 200.829 56.9699 200.52C57.5352 200.2 58.1432 200.04 58.7939 200.04ZM72.8269 204.376C72.8269 204.707 72.8055 205.005 72.7629 205.272H66.0269C66.0802 205.976 66.3415 206.541 66.8109 206.968C67.2802 207.395 67.8562 207.608 68.5389 207.608C69.5202 207.608 70.2135 207.197 70.6189 206.376H72.5869C72.3202 207.187 71.8349 207.853 71.1309 208.376C70.4375 208.888 69.5735 209.144 68.5389 209.144C67.6962 209.144 66.9389 208.957 66.2669 208.584C65.6055 208.2 65.0829 207.667 64.6989 206.984C64.3255 206.291 64.1389 205.491 64.1389 204.584C64.1389 203.677 64.3202 202.883 64.6829 202.2C65.0562 201.507 65.5735 200.973 66.2349 200.6C66.9069 200.227 67.6749 200.04 68.5389 200.04C69.3709 200.04 70.1122 200.221 70.7629 200.584C71.4135 200.947 71.9202 201.459 72.2829 202.12C72.6455 202.771 72.8269 203.523 72.8269 204.376ZM70.9229 203.8C70.9122 203.128 70.6722 202.589 70.2029 202.184C69.7335 201.779 69.1522 201.576 68.4589 201.576C67.8295 201.576 67.2909 201.779 66.8429 202.184C66.3949 202.579 66.1282 203.117 66.0429 203.8H70.9229ZM76.7499 201.672V206.552C76.7499 206.883 76.8245 207.123 76.9739 207.272C77.1339 207.411 77.4005 207.48 77.7739 207.48H78.8939V209H77.4539C76.6325 209 76.0032 208.808 75.5659 208.424C75.1285 208.04 74.9099 207.416 74.9099 206.552V201.672H73.8699V200.184H74.9099V197.992H76.7499V200.184H78.8939V201.672H76.7499ZM79.967 204.552C79.967 203.667 80.1483 202.883 80.511 202.2C80.8843 201.517 81.3857 200.989 82.015 200.616C82.655 200.232 83.359 200.04 84.127 200.04C84.8203 200.04 85.423 200.179 85.935 200.456C86.4577 200.723 86.8737 201.059 87.183 201.464V200.184H89.023V209H87.183V207.688C86.8737 208.104 86.4523 208.451 85.919 208.728C85.3857 209.005 84.7777 209.144 84.095 209.144C83.3377 209.144 82.6443 208.952 82.015 208.568C81.3857 208.173 80.8843 207.629 80.511 206.936C80.1483 206.232 79.967 205.437 79.967 204.552ZM87.183 204.584C87.183 203.976 87.055 203.448 86.799 203C86.5537 202.552 86.2283 202.211 85.823 201.976C85.4177 201.741 84.9803 201.624 84.511 201.624C84.0417 201.624 83.6043 201.741 83.199 201.976C82.7937 202.2 82.463 202.536 82.207 202.984C81.9617 203.421 81.839 203.944 81.839 204.552C81.839 205.16 81.9617 205.693 82.207 206.152C82.463 206.611 82.7937 206.963 83.199 207.208C83.615 207.443 84.0523 207.56 84.511 207.56C84.9803 207.56 85.4177 207.443 85.823 207.208C86.2283 206.973 86.5537 206.632 86.799 206.184C87.055 205.725 87.183 205.192 87.183 204.584ZM50.2499 225.672V230.552C50.2499 230.883 50.3245 231.123 50.4739 231.272C50.6339 231.411 50.9005 231.48 51.2739 231.48H52.3939V233H50.9539C50.1325 233 49.5032 232.808 49.0659 232.424C48.6285 232.04 48.4099 231.416 48.4099 230.552V225.672H47.3699V224.184H48.4099V221.992H50.2499V224.184H52.3939V225.672H50.2499ZM55.003 223.016C54.6723 223.016 54.395 222.904 54.171 222.68C53.947 222.456 53.835 222.179 53.835 221.848C53.835 221.517 53.947 221.24 54.171 221.016C54.395 220.792 54.6723 220.68 55.003 220.68C55.323 220.68 55.595 220.792 55.819 221.016C56.043 221.24 56.155 221.517 56.155 221.848C56.155 222.179 56.043 222.456 55.819 222.68C55.595 222.904 55.323 223.016 55.003 223.016ZM55.899 224.184V233H54.075V224.184H55.899ZM60.4218 225.672V230.552C60.4218 230.883 60.4964 231.123 60.6458 231.272C60.8058 231.411 61.0724 231.48 61.4458 231.48H62.5658V233H61.1258C60.3044 233 59.6751 232.808 59.2378 232.424C58.8004 232.04 58.5818 231.416 58.5818 230.552V225.672H57.5418V224.184H58.5818V221.992H60.4218V224.184H62.5658V225.672H60.4218ZM66.0709 221.16V233H64.2469V221.16H66.0709ZM76.5456 228.376C76.5456 228.707 76.5243 229.005 76.4816 229.272H69.7456C69.799 229.976 70.0603 230.541 70.5296 230.968C70.999 231.395 71.575 231.608 72.2576 231.608C73.239 231.608 73.9323 231.197 74.3376 230.376H76.3056C76.039 231.187 75.5536 231.853 74.8496 232.376C74.1563 232.888 73.2923 233.144 72.2576 233.144C71.415 233.144 70.6576 232.957 69.9856 232.584C69.3243 232.2 68.8016 231.667 68.4176 230.984C68.0443 230.291 67.8576 229.491 67.8576 228.584C67.8576 227.677 68.039 226.883 68.4016 226.2C68.775 225.507 69.2923 224.973 69.9536 224.6C70.6256 224.227 71.3936 224.04 72.2576 224.04C73.0896 224.04 73.831 224.221 74.4816 224.584C75.1323 224.947 75.639 225.459 76.0016 226.12C76.3643 226.771 76.5456 227.523 76.5456 228.376ZM74.6416 227.8C74.631 227.128 74.391 226.589 73.9216 226.184C73.4523 225.779 72.871 225.576 72.1776 225.576C71.5483 225.576 71.0096 225.779 70.5616 226.184C70.1136 226.579 69.847 227.117 69.7616 227.8H74.6416ZM190.328 225.672V230.552C190.328 230.883 190.403 231.123 190.552 231.272C190.712 231.411 190.979 231.48 191.352 231.48H192.472V233H191.032C190.211 233 189.581 232.808 189.144 232.424C188.707 232.04 188.488 231.416 188.488 230.552V225.672H187.448V224.184H188.488V221.992H190.328V224.184H192.472V225.672H190.328ZM195.081 223.016C194.75 223.016 194.473 222.904 194.249 222.68C194.025 222.456 193.913 222.179 193.913 221.848C193.913 221.517 194.025 221.24 194.249 221.016C194.473 220.792 194.75 220.68 195.081 220.68C195.401 220.68 195.673 220.792 195.897 221.016C196.121 221.24 196.233 221.517 196.233 221.848C196.233 222.179 196.121 222.456 195.897 222.68C195.673 222.904 195.401 223.016 195.081 223.016ZM195.977 224.184V233H194.153V224.184H195.977ZM200.5 225.672V230.552C200.5 230.883 200.575 231.123 200.724 231.272C200.884 231.411 201.151 231.48 201.524 231.48H202.644V233H201.204C200.383 233 199.753 232.808 199.316 232.424C198.879 232.04 198.66 231.416 198.66 230.552V225.672H197.62V224.184H198.66V221.992H200.5V224.184H202.644V225.672H200.5ZM206.149 221.16V233H204.325V221.16H206.149ZM216.624 228.376C216.624 228.707 216.602 229.005 216.56 229.272H209.824C209.877 229.976 210.138 230.541 210.608 230.968C211.077 231.395 211.653 231.608 212.336 231.608C213.317 231.608 214.01 231.197 214.416 230.376H216.384C216.117 231.187 215.632 231.853 214.928 232.376C214.234 232.888 213.37 233.144 212.336 233.144C211.493 233.144 210.736 232.957 210.064 232.584C209.402 232.2 208.88 231.667 208.496 230.984C208.122 230.291 207.936 229.491 207.936 228.584C207.936 227.677 208.117 226.883 208.48 226.2C208.853 225.507 209.37 224.973 210.032 224.6C210.704 224.227 211.472 224.04 212.336 224.04C213.168 224.04 213.909 224.221 214.56 224.584C215.21 224.947 215.717 225.459 216.08 226.12C216.442 226.771 216.624 227.523 216.624 228.376ZM214.72 227.8C214.709 227.128 214.469 226.589 214 226.184C213.53 225.779 212.949 225.576 212.256 225.576C211.626 225.576 211.088 225.779 210.64 226.184C210.192 226.579 209.925 227.117 209.84 227.8H214.72ZM42.3069 248.04C42.9789 248.04 43.5762 248.184 44.0989 248.472C44.6322 248.76 45.0482 249.187 45.3469 249.752C45.6562 250.317 45.8109 251 45.8109 251.8V257H44.0029V252.072C44.0029 251.283 43.8055 250.68 43.4109 250.264C43.0162 249.837 42.4775 249.624 41.7949 249.624C41.1122 249.624 40.5682 249.837 40.1629 250.264C39.7682 250.68 39.5709 251.283 39.5709 252.072V257H37.7469V245.16H39.5709V249.208C39.8802 248.835 40.2695 248.547 40.7389 248.344C41.2189 248.141 41.7415 248.04 42.3069 248.04ZM56.2175 252.376C56.2175 252.707 56.1962 253.005 56.1535 253.272H49.4175C49.4708 253.976 49.7322 254.541 50.2015 254.968C50.6708 255.395 51.2468 255.608 51.9295 255.608C52.9108 255.608 53.6042 255.197 54.0095 254.376H55.9775C55.7108 255.187 55.2255 255.853 54.5215 256.376C53.8282 256.888 52.9642 257.144 51.9295 257.144C51.0868 257.144 50.3295 256.957 49.6575 256.584C48.9962 256.2 48.4735 255.667 48.0895 254.984C47.7162 254.291 47.5295 253.491 47.5295 252.584C47.5295 251.677 47.7108 250.883 48.0735 250.2C48.4468 249.507 48.9642 248.973 49.6255 248.6C50.2975 248.227 51.0655 248.04 51.9295 248.04C52.7615 248.04 53.5028 248.221 54.1535 248.584C54.8042 248.947 55.3108 249.459 55.6735 250.12C56.0362 250.771 56.2175 251.523 56.2175 252.376ZM54.3135 251.8C54.3028 251.128 54.0628 250.589 53.5935 250.184C53.1242 249.779 52.5428 249.576 51.8495 249.576C51.2202 249.576 50.6815 249.779 50.2335 250.184C49.7855 250.579 49.5188 251.117 49.4335 251.8H54.3135ZM57.4045 252.552C57.4045 251.667 57.5858 250.883 57.9485 250.2C58.3218 249.517 58.8232 248.989 59.4525 248.616C60.0925 248.232 60.7965 248.04 61.5645 248.04C62.2578 248.04 62.8605 248.179 63.3725 248.456C63.8952 248.723 64.3112 249.059 64.6205 249.464V248.184H66.4605V257H64.6205V255.688C64.3112 256.104 63.8898 256.451 63.3565 256.728C62.8232 257.005 62.2152 257.144 61.5325 257.144C60.7752 257.144 60.0818 256.952 59.4525 256.568C58.8232 256.173 58.3218 255.629 57.9485 254.936C57.5858 254.232 57.4045 253.437 57.4045 252.552ZM64.6205 252.584C64.6205 251.976 64.4925 251.448 64.2365 251C63.9912 250.552 63.6658 250.211 63.2605 249.976C62.8552 249.741 62.4178 249.624 61.9485 249.624C61.4792 249.624 61.0418 249.741 60.6365 249.976C60.2312 250.2 59.9005 250.536 59.6445 250.984C59.3992 251.421 59.2765 251.944 59.2765 252.552C59.2765 253.16 59.3992 253.693 59.6445 254.152C59.9005 254.611 60.2312 254.963 60.6365 255.208C61.0525 255.443 61.4898 255.56 61.9485 255.56C62.4178 255.56 62.8552 255.443 63.2605 255.208C63.6658 254.973 63.9912 254.632 64.2365 254.184C64.4925 253.725 64.6205 253.192 64.6205 252.584ZM68.2483 252.552C68.2483 251.667 68.4296 250.883 68.7923 250.2C69.1656 249.517 69.6669 248.989 70.2963 248.616C70.9363 248.232 71.6456 248.04 72.4243 248.04C73.0003 248.04 73.5656 248.168 74.1203 248.424C74.6856 248.669 75.1336 249 75.4643 249.416V245.16H77.3043V257H75.4643V255.672C75.1656 256.099 74.7496 256.451 74.2163 256.728C73.6936 257.005 73.0909 257.144 72.4083 257.144C71.6403 257.144 70.9363 256.952 70.2963 256.568C69.6669 256.173 69.1656 255.629 68.7923 254.936C68.4296 254.232 68.2483 253.437 68.2483 252.552ZM75.4643 252.584C75.4643 251.976 75.3363 251.448 75.0803 251C74.8349 250.552 74.5096 250.211 74.1043 249.976C73.6989 249.741 73.2616 249.624 72.7923 249.624C72.3229 249.624 71.8856 249.741 71.4803 249.976C71.0749 250.2 70.7443 250.536 70.4883 250.984C70.2429 251.421 70.1203 251.944 70.1203 252.552C70.1203 253.16 70.2429 253.693 70.4883 254.152C70.7443 254.611 71.0749 254.963 71.4803 255.208C71.8963 255.443 72.3336 255.56 72.7923 255.56C73.2616 255.56 73.6989 255.443 74.1043 255.208C74.5096 254.973 74.8349 254.632 75.0803 254.184C75.3363 253.725 75.4643 253.192 75.4643 252.584ZM33.3209 297.496C33.6302 297.069 34.0515 296.723 34.5849 296.456C35.1289 296.179 35.7315 296.04 36.3929 296.04C37.1715 296.04 37.8755 296.227 38.5049 296.6C39.1342 296.973 39.6302 297.507 39.9929 298.2C40.3555 298.883 40.5369 299.667 40.5369 300.552C40.5369 301.437 40.3555 302.232 39.9929 302.936C39.6302 303.629 39.1289 304.173 38.4889 304.568C37.8595 304.952 37.1609 305.144 36.3929 305.144C35.7102 305.144 35.1022 305.011 34.5689 304.744C34.0462 304.477 33.6302 304.136 33.3209 303.72V305H31.4969V293.16H33.3209V297.496ZM38.6809 300.552C38.6809 299.944 38.5529 299.421 38.2969 298.984C38.0515 298.536 37.7209 298.2 37.3049 297.976C36.8995 297.741 36.4622 297.624 35.9929 297.624C35.5342 297.624 35.0969 297.741 34.6809 297.976C34.2755 298.211 33.9449 298.552 33.6889 299C33.4435 299.448 33.3209 299.976 33.3209 300.584C33.3209 301.192 33.4435 301.725 33.6889 302.184C33.9449 302.632 34.2755 302.973 34.6809 303.208C35.0969 303.443 35.5342 303.56 35.9929 303.56C36.4622 303.56 36.8995 303.443 37.3049 303.208C37.7209 302.963 38.0515 302.611 38.2969 302.152C38.5529 301.693 38.6809 301.16 38.6809 300.552ZM46.1646 305.144C45.3326 305.144 44.5806 304.957 43.9086 304.584C43.2366 304.2 42.7086 303.667 42.3246 302.984C41.9406 302.291 41.7486 301.491 41.7486 300.584C41.7486 299.688 41.946 298.893 42.3406 298.2C42.7353 297.507 43.274 296.973 43.9566 296.6C44.6393 296.227 45.402 296.04 46.2446 296.04C47.0873 296.04 47.85 296.227 48.5326 296.6C49.2153 296.973 49.754 297.507 50.1486 298.2C50.5433 298.893 50.7406 299.688 50.7406 300.584C50.7406 301.48 50.538 302.275 50.1326 302.968C49.7273 303.661 49.1726 304.2 48.4686 304.584C47.7753 304.957 47.0073 305.144 46.1646 305.144ZM46.1646 303.56C46.634 303.56 47.0713 303.448 47.4766 303.224C47.8926 303 48.2286 302.664 48.4846 302.216C48.7406 301.768 48.8686 301.224 48.8686 300.584C48.8686 299.944 48.746 299.405 48.5006 298.968C48.2553 298.52 47.93 298.184 47.5246 297.96C47.1193 297.736 46.682 297.624 46.2126 297.624C45.7433 297.624 45.306 297.736 44.9006 297.96C44.506 298.184 44.1913 298.52 43.9566 298.968C43.722 299.405 43.6046 299.944 43.6046 300.584C43.6046 301.533 43.8446 302.269 44.3246 302.792C44.8153 303.304 45.4286 303.56 46.1646 303.56ZM51.9358 300.552C51.9358 299.667 52.1171 298.883 52.4798 298.2C52.8531 297.517 53.3544 296.989 53.9838 296.616C54.6238 296.232 55.3331 296.04 56.1118 296.04C56.6878 296.04 57.2531 296.168 57.8078 296.424C58.3731 296.669 58.8211 297 59.1518 297.416V293.16H60.9918V305H59.1518V303.672C58.8531 304.099 58.4371 304.451 57.9038 304.728C57.3811 305.005 56.7784 305.144 56.0958 305.144C55.3278 305.144 54.6238 304.952 53.9838 304.568C53.3544 304.173 52.8531 303.629 52.4798 302.936C52.1171 302.232 51.9358 301.437 51.9358 300.552ZM59.1518 300.584C59.1518 299.976 59.0238 299.448 58.7678 299C58.5224 298.552 58.1971 298.211 57.7918 297.976C57.3864 297.741 56.9491 297.624 56.4798 297.624C56.0104 297.624 55.5731 297.741 55.1678 297.976C54.7624 298.2 54.4318 298.536 54.1758 298.984C53.9304 299.421 53.8078 299.944 53.8078 300.552C53.8078 301.16 53.9304 301.693 54.1758 302.152C54.4318 302.611 54.7624 302.963 55.1678 303.208C55.5838 303.443 56.0211 303.56 56.4798 303.56C56.9491 303.56 57.3864 303.443 57.7918 303.208C58.1971 302.973 58.5224 302.632 58.7678 302.184C59.0238 301.725 59.1518 301.192 59.1518 300.584ZM71.3235 296.184L65.9155 309.144H64.0275L65.8195 304.856L62.3475 296.184H64.3795L66.8595 302.904L69.4355 296.184H71.3235ZM52.6819 320.04C53.3539 320.04 53.9512 320.184 54.4739 320.472C55.0072 320.76 55.4232 321.187 55.7219 321.752C56.0312 322.317 56.1859 323 56.1859 323.8V329H54.3779V324.072C54.3779 323.283 54.1805 322.68 53.7859 322.264C53.3912 321.837 52.8525 321.624 52.1699 321.624C51.4872 321.624 50.9432 321.837 50.5379 322.264C50.1432 322.68 49.9459 323.283 49.9459 324.072V329H48.1219V317.16H49.9459V321.208C50.2552 320.835 50.6445 320.547 51.1139 320.344C51.5939 320.141 52.1165 320.04 52.6819 320.04ZM58.0325 319V317.336H61.3605V329H59.5205V319H58.0325ZM187.854 320.04C188.526 320.04 189.123 320.184 189.646 320.472C190.179 320.76 190.595 321.187 190.894 321.752C191.203 322.317 191.358 323 191.358 323.8V329H189.55V324.072C189.55 323.283 189.352 322.68 188.958 322.264C188.563 321.837 188.024 321.624 187.342 321.624C186.659 321.624 186.115 321.837 185.71 322.264C185.315 322.68 185.118 323.283 185.118 324.072V329H183.294V317.16H185.118V321.208C185.427 320.835 185.816 320.547 186.286 320.344C186.766 320.141 187.288 320.04 187.854 320.04ZM193.204 319V317.336H196.532V329H194.692V319H193.204ZM39.5709 345.496C39.8802 345.069 40.3015 344.723 40.8349 344.456C41.3789 344.179 41.9815 344.04 42.6429 344.04C43.4215 344.04 44.1255 344.227 44.7549 344.6C45.3842 344.973 45.8802 345.507 46.2429 346.2C46.6055 346.883 46.7869 347.667 46.7869 348.552C46.7869 349.437 46.6055 350.232 46.2429 350.936C45.8802 351.629 45.3789 352.173 44.7389 352.568C44.1095 352.952 43.4109 353.144 42.6429 353.144C41.9602 353.144 41.3522 353.011 40.8189 352.744C40.2962 352.477 39.8802 352.136 39.5709 351.72V353H37.7469V341.16H39.5709V345.496ZM44.9309 348.552C44.9309 347.944 44.8029 347.421 44.5469 346.984C44.3015 346.536 43.9709 346.2 43.5549 345.976C43.1495 345.741 42.7122 345.624 42.2429 345.624C41.7842 345.624 41.3469 345.741 40.9309 345.976C40.5255 346.211 40.1949 346.552 39.9389 347C39.6935 347.448 39.5709 347.976 39.5709 348.584C39.5709 349.192 39.6935 349.725 39.9389 350.184C40.1949 350.632 40.5255 350.973 40.9309 351.208C41.3469 351.443 41.7842 351.56 42.2429 351.56C42.7122 351.56 43.1495 351.443 43.5549 351.208C43.9709 350.963 44.3015 350.611 44.5469 350.152C44.8029 349.693 44.9309 349.16 44.9309 348.552ZM52.4146 353.144C51.5826 353.144 50.8306 352.957 50.1586 352.584C49.4866 352.2 48.9586 351.667 48.5746 350.984C48.1906 350.291 47.9986 349.491 47.9986 348.584C47.9986 347.688 48.196 346.893 48.5906 346.2C48.9853 345.507 49.524 344.973 50.2066 344.6C50.8893 344.227 51.652 344.04 52.4946 344.04C53.3373 344.04 54.1 344.227 54.7826 344.6C55.4653 344.973 56.004 345.507 56.3986 346.2C56.7933 346.893 56.9906 347.688 56.9906 348.584C56.9906 349.48 56.788 350.275 56.3826 350.968C55.9773 351.661 55.4226 352.2 54.7186 352.584C54.0253 352.957 53.2573 353.144 52.4146 353.144ZM52.4146 351.56C52.884 351.56 53.3213 351.448 53.7266 351.224C54.1426 351 54.4786 350.664 54.7346 350.216C54.9906 349.768 55.1186 349.224 55.1186 348.584C55.1186 347.944 54.996 347.405 54.7506 346.968C54.5053 346.52 54.18 346.184 53.7746 345.96C53.3693 345.736 52.932 345.624 52.4626 345.624C51.9933 345.624 51.556 345.736 51.1506 345.96C50.756 346.184 50.4413 346.52 50.2066 346.968C49.972 347.405 49.8546 347.944 49.8546 348.584C49.8546 349.533 50.0946 350.269 50.5746 350.792C51.0653 351.304 51.6786 351.56 52.4146 351.56ZM58.1858 348.552C58.1858 347.667 58.3671 346.883 58.7298 346.2C59.1031 345.517 59.6044 344.989 60.2338 344.616C60.8738 344.232 61.5831 344.04 62.3618 344.04C62.9378 344.04 63.5031 344.168 64.0578 344.424C64.6231 344.669 65.0711 345 65.4018 345.416V341.16H67.2418V353H65.4018V351.672C65.1031 352.099 64.6871 352.451 64.1538 352.728C63.6311 353.005 63.0284 353.144 62.3458 353.144C61.5778 353.144 60.8738 352.952 60.2338 352.568C59.6044 352.173 59.1031 351.629 58.7298 350.936C58.3671 350.232 58.1858 349.437 58.1858 348.552ZM65.4018 348.584C65.4018 347.976 65.2738 347.448 65.0178 347C64.7724 346.552 64.4471 346.211 64.0418 345.976C63.6364 345.741 63.1991 345.624 62.7298 345.624C62.2604 345.624 61.8231 345.741 61.4178 345.976C61.0124 346.2 60.6818 346.536 60.4258 346.984C60.1804 347.421 60.0578 347.944 60.0578 348.552C60.0578 349.16 60.1804 349.693 60.4258 350.152C60.6818 350.611 61.0124 350.963 61.4178 351.208C61.8338 351.443 62.2711 351.56 62.7298 351.56C63.1991 351.56 63.6364 351.443 64.0418 351.208C64.4471 350.973 64.7724 350.632 65.0178 350.184C65.2738 349.725 65.4018 349.192 65.4018 348.584ZM77.5735 344.184L72.1655 357.144H70.2775L72.0695 352.856L68.5975 344.184H70.6295L73.1095 350.904L75.6855 344.184H77.5735ZM42.3069 392.04C42.9789 392.04 43.5762 392.184 44.0989 392.472C44.6322 392.76 45.0482 393.187 45.3469 393.752C45.6562 394.317 45.8109 395 45.8109 395.8V401H44.0029V396.072C44.0029 395.283 43.8055 394.68 43.4109 394.264C43.0162 393.837 42.4775 393.624 41.7949 393.624C41.1122 393.624 40.5682 393.837 40.1629 394.264C39.7682 394.68 39.5709 395.283 39.5709 396.072V401H37.7469V389.16H39.5709V393.208C39.8802 392.835 40.2695 392.547 40.7389 392.344C41.2189 392.141 41.7415 392.04 42.3069 392.04ZM50.2655 393.672V398.552C50.2655 398.883 50.3402 399.123 50.4895 399.272C50.6495 399.411 50.9162 399.48 51.2895 399.48H52.4095V401H50.9695C50.1482 401 49.5188 400.808 49.0815 400.424C48.6442 400.04 48.4255 399.416 48.4255 398.552V393.672H47.3855V392.184H48.4255V389.992H50.2655V392.184H52.4095V393.672H50.2655ZM64.7626 392.04C65.456 392.04 66.0746 392.184 66.6186 392.472C67.1733 392.76 67.6053 393.187 67.9146 393.752C68.2346 394.317 68.3946 395 68.3946 395.8V401H66.5866V396.072C66.5866 395.283 66.3893 394.68 65.9946 394.264C65.6 393.837 65.0613 393.624 64.3786 393.624C63.696 393.624 63.152 393.837 62.7466 394.264C62.352 394.68 62.1546 395.283 62.1546 396.072V401H60.3466V396.072C60.3466 395.283 60.1493 394.68 59.7546 394.264C59.36 393.837 58.8213 393.624 58.1386 393.624C57.456 393.624 56.912 393.837 56.5066 394.264C56.112 394.68 55.9146 395.283 55.9146 396.072V401H54.0906V392.184H55.9146V393.192C56.2133 392.829 56.592 392.547 57.0506 392.344C57.5093 392.141 58 392.04 58.5226 392.04C59.2266 392.04 59.856 392.189 60.4106 392.488C60.9653 392.787 61.392 393.219 61.6906 393.784C61.9573 393.251 62.3733 392.829 62.9386 392.52C63.504 392.2 64.112 392.04 64.7626 392.04ZM72.5396 389.16V401H70.7156V389.16H72.5396Z" fill="#93D69B"/>
<path d="M134.78 108.376C134.78 108.707 134.759 109.005 134.716 109.272H127.98C128.033 109.976 128.295 110.541 128.764 110.968C129.233 111.395 129.809 111.608 130.492 111.608C131.473 111.608 132.167 111.197 132.572 110.376H134.54C134.273 111.187 133.788 111.853 133.084 112.376C132.391 112.888 131.527 113.144 130.492 113.144C129.649 113.144 128.892 112.957 128.22 112.584C127.559 112.2 127.036 111.667 126.652 110.984C126.279 110.291 126.092 109.491 126.092 108.584C126.092 107.677 126.273 106.883 126.636 106.2C127.009 105.507 127.527 104.973 128.188 104.6C128.86 104.227 129.628 104.04 130.492 104.04C131.324 104.04 132.065 104.221 132.716 104.584C133.367 104.947 133.873 105.459 134.236 106.12C134.599 106.771 134.78 107.523 134.78 108.376ZM132.876 107.8C132.865 107.128 132.625 106.589 132.156 106.184C131.687 105.779 131.105 105.576 130.412 105.576C129.783 105.576 129.244 105.779 128.796 106.184C128.348 106.579 128.081 107.117 127.996 107.8H132.876ZM141.023 104.04C141.716 104.04 142.335 104.184 142.879 104.472C143.434 104.76 143.866 105.187 144.175 105.752C144.484 106.317 144.639 107 144.639 107.8V113H142.831V108.072C142.831 107.283 142.634 106.68 142.239 106.264C141.844 105.837 141.306 105.624 140.623 105.624C139.94 105.624 139.396 105.837 138.991 106.264C138.596 106.68 138.399 107.283 138.399 108.072V113H136.575V104.184H138.399V105.192C138.698 104.829 139.076 104.547 139.535 104.344C140.004 104.141 140.5 104.04 141.023 104.04ZM176.289 173.88V180.968C176.289 181.811 176.508 182.445 176.945 182.872C177.393 183.299 178.012 183.512 178.801 183.512C179.601 183.512 180.22 183.299 180.657 182.872C181.105 182.445 181.329 181.811 181.329 180.968V173.88H183.153V180.936C183.153 181.843 182.956 182.611 182.561 183.24C182.167 183.869 181.639 184.339 180.977 184.648C180.316 184.957 179.585 185.112 178.785 185.112C177.985 185.112 177.255 184.957 176.593 184.648C175.943 184.339 175.425 183.869 175.041 183.24C174.657 182.611 174.465 181.843 174.465 180.936V173.88H176.289ZM192.712 173.88V175.368H189.752V185H187.928V175.368H184.952V173.88H192.712ZM201.103 173.88V175.368H196.383V178.648H200.063V180.136H196.383V185H194.559V173.88H201.103ZM209.562 178.44V179.976H202.986V178.44H209.562ZM213.881 178.904C212.772 178.349 212.217 177.475 212.217 176.28C212.217 175.704 212.361 175.176 212.649 174.696C212.937 174.216 213.369 173.837 213.945 173.56C214.521 173.272 215.225 173.128 216.057 173.128C216.878 173.128 217.577 173.272 218.153 173.56C218.74 173.837 219.177 174.216 219.465 174.696C219.753 175.176 219.897 175.704 219.897 176.28C219.897 176.877 219.742 177.405 219.433 177.864C219.134 178.312 218.734 178.659 218.233 178.904C218.841 179.128 219.321 179.496 219.673 180.008C220.025 180.509 220.201 181.101 220.201 181.784C220.201 182.477 220.025 183.091 219.673 183.624C219.321 184.157 218.83 184.568 218.201 184.856C217.572 185.144 216.857 185.288 216.057 185.288C215.257 185.288 214.542 185.144 213.913 184.856C213.294 184.568 212.809 184.157 212.457 183.624C212.105 183.091 211.929 182.477 211.929 181.784C211.929 181.091 212.105 180.493 212.457 179.992C212.809 179.491 213.284 179.128 213.881 178.904ZM218.153 176.504C218.153 175.907 217.966 175.448 217.593 175.128C217.22 174.808 216.708 174.648 216.057 174.648C215.417 174.648 214.91 174.808 214.537 175.128C214.164 175.448 213.977 175.912 213.977 176.52C213.977 177.053 214.169 177.491 214.553 177.832C214.948 178.163 215.449 178.328 216.057 178.328C216.665 178.328 217.166 178.157 217.561 177.816C217.956 177.475 218.153 177.037 218.153 176.504ZM216.057 179.704C215.353 179.704 214.777 179.88 214.329 180.232C213.892 180.573 213.673 181.069 213.673 181.72C213.673 182.328 213.886 182.824 214.313 183.208C214.74 183.581 215.321 183.768 216.057 183.768C216.782 183.768 217.353 183.576 217.769 183.192C218.196 182.808 218.409 182.317 218.409 181.72C218.409 181.08 218.19 180.584 217.753 180.232C217.326 179.88 216.761 179.704 216.057 179.704ZM164.28 207.368L166.776 200.184H168.712L165.352 209H163.176L159.832 200.184H161.784L164.28 207.368ZM171.019 199.016C170.688 199.016 170.411 198.904 170.187 198.68C169.963 198.456 169.851 198.179 169.851 197.848C169.851 197.517 169.963 197.24 170.187 197.016C170.411 196.792 170.688 196.68 171.019 196.68C171.339 196.68 171.611 196.792 171.835 197.016C172.059 197.24 172.171 197.517 172.171 197.848C172.171 198.179 172.059 198.456 171.835 198.68C171.611 198.904 171.339 199.016 171.019 199.016ZM171.915 200.184V209H170.091V200.184H171.915ZM182.389 204.376C182.389 204.707 182.368 205.005 182.325 205.272H175.589C175.643 205.976 175.904 206.541 176.373 206.968C176.843 207.395 177.419 207.608 178.101 207.608C179.083 207.608 179.776 207.197 180.181 206.376H182.149C181.883 207.187 181.397 207.853 180.693 208.376C180 208.888 179.136 209.144 178.101 209.144C177.259 209.144 176.501 208.957 175.829 208.584C175.168 208.2 174.645 207.667 174.261 206.984C173.888 206.291 173.701 205.491 173.701 204.584C173.701 203.677 173.883 202.883 174.245 202.2C174.619 201.507 175.136 200.973 175.797 200.6C176.469 200.227 177.237 200.04 178.101 200.04C178.933 200.04 179.675 200.221 180.325 200.584C180.976 200.947 181.483 201.459 181.845 202.12C182.208 202.771 182.389 203.523 182.389 204.376ZM180.485 203.8C180.475 203.128 180.235 202.589 179.765 202.184C179.296 201.779 178.715 201.576 178.021 201.576C177.392 201.576 176.853 201.779 176.405 202.184C175.957 202.579 175.691 203.117 175.605 203.8H180.485ZM196.024 200.184L193.288 209H191.368L189.592 202.488L187.816 209H185.896L183.144 200.184H185L186.84 207.272L188.712 200.184H190.616L192.408 207.24L194.232 200.184H196.024ZM199.212 201.48C199.521 201.075 199.942 200.733 200.476 200.456C201.009 200.179 201.612 200.04 202.284 200.04C203.052 200.04 203.75 200.232 204.38 200.616C205.02 200.989 205.521 201.517 205.884 202.2C206.246 202.883 206.428 203.667 206.428 204.552C206.428 205.437 206.246 206.232 205.884 206.936C205.521 207.629 205.02 208.173 204.38 208.568C203.75 208.952 203.052 209.144 202.284 209.144C201.612 209.144 201.014 209.011 200.492 208.744C199.969 208.467 199.542 208.125 199.212 207.72V213.192H197.388V200.184H199.212V201.48ZM204.572 204.552C204.572 203.944 204.444 203.421 204.188 202.984C203.942 202.536 203.612 202.2 203.196 201.976C202.79 201.741 202.353 201.624 201.884 201.624C201.425 201.624 200.988 201.741 200.572 201.976C200.166 202.211 199.836 202.552 199.58 203C199.334 203.448 199.212 203.976 199.212 204.584C199.212 205.192 199.334 205.725 199.58 206.184C199.836 206.632 200.166 206.973 200.572 207.208C200.988 207.443 201.425 207.56 201.884 207.56C202.353 207.56 202.79 207.443 203.196 207.208C203.612 206.963 203.942 206.611 204.188 206.152C204.444 205.693 204.572 205.16 204.572 204.552ZM212.055 209.144C211.223 209.144 210.471 208.957 209.799 208.584C209.127 208.2 208.599 207.667 208.215 206.984C207.831 206.291 207.639 205.491 207.639 204.584C207.639 203.688 207.837 202.893 208.231 202.2C208.626 201.507 209.165 200.973 209.847 200.6C210.53 200.227 211.293 200.04 212.135 200.04C212.978 200.04 213.741 200.227 214.423 200.6C215.106 200.973 215.645 201.507 216.039 202.2C216.434 202.893 216.631 203.688 216.631 204.584C216.631 205.48 216.429 206.275 216.023 206.968C215.618 207.661 215.063 208.2 214.359 208.584C213.666 208.957 212.898 209.144 212.055 209.144ZM212.055 207.56C212.525 207.56 212.962 207.448 213.367 207.224C213.783 207 214.119 206.664 214.375 206.216C214.631 205.768 214.759 205.224 214.759 204.584C214.759 203.944 214.637 203.405 214.391 202.968C214.146 202.52 213.821 202.184 213.415 201.96C213.01 201.736 212.573 201.624 212.103 201.624C211.634 201.624 211.197 201.736 210.791 201.96C210.397 202.184 210.082 202.52 209.847 202.968C209.613 203.405 209.495 203.944 209.495 204.584C209.495 205.533 209.735 206.269 210.215 206.792C210.706 207.304 211.319 207.56 212.055 207.56ZM220.258 201.464C220.525 201.016 220.877 200.669 221.314 200.424C221.762 200.168 222.29 200.04 222.898 200.04V201.928H222.434C221.72 201.928 221.176 202.109 220.802 202.472C220.44 202.835 220.258 203.464 220.258 204.36V209H218.434V200.184H220.258V201.464ZM226.703 201.672V206.552C226.703 206.883 226.778 207.123 226.927 207.272C227.087 207.411 227.354 207.48 227.727 207.48H228.847V209H227.407C226.586 209 225.956 208.808 225.519 208.424C225.082 208.04 224.863 207.416 224.863 206.552V201.672H223.823V200.184H224.863V197.992H226.703V200.184H228.847V201.672H226.703ZM331.618 200.184L328.882 209H326.962L325.186 202.488L323.41 209H321.49L318.738 200.184H320.594L322.434 207.272L324.306 200.184H326.21L328.002 207.24L329.826 200.184H331.618ZM333.909 199.016C333.579 199.016 333.301 198.904 333.077 198.68C332.853 198.456 332.741 198.179 332.741 197.848C332.741 197.517 332.853 197.24 333.077 197.016C333.301 196.792 333.579 196.68 333.909 196.68C334.229 196.68 334.501 196.792 334.725 197.016C334.949 197.24 335.061 197.517 335.061 197.848C335.061 198.179 334.949 198.456 334.725 198.68C334.501 198.904 334.229 199.016 333.909 199.016ZM334.805 200.184V209H332.981V200.184H334.805ZM336.592 204.552C336.592 203.667 336.773 202.883 337.136 202.2C337.509 201.517 338.011 200.989 338.64 200.616C339.28 200.232 339.989 200.04 340.768 200.04C341.344 200.04 341.909 200.168 342.464 200.424C343.029 200.669 343.477 201 343.808 201.416V197.16H345.648V209H343.808V207.672C343.509 208.099 343.093 208.451 342.56 208.728C342.037 209.005 341.435 209.144 340.752 209.144C339.984 209.144 339.28 208.952 338.64 208.568C338.011 208.173 337.509 207.629 337.136 206.936C336.773 206.232 336.592 205.437 336.592 204.552ZM343.808 204.584C343.808 203.976 343.68 203.448 343.424 203C343.179 202.552 342.853 202.211 342.448 201.976C342.043 201.741 341.605 201.624 341.136 201.624C340.667 201.624 340.229 201.741 339.824 201.976C339.419 202.2 339.088 202.536 338.832 202.984C338.587 203.421 338.464 203.944 338.464 204.552C338.464 205.16 338.587 205.693 338.832 206.152C339.088 206.611 339.419 206.963 339.824 207.208C340.24 207.443 340.677 207.56 341.136 207.56C341.605 207.56 342.043 207.443 342.448 207.208C342.853 206.973 343.179 206.632 343.424 206.184C343.68 205.725 343.808 205.192 343.808 204.584ZM350.172 201.672V206.552C350.172 206.883 350.246 207.123 350.396 207.272C350.556 207.411 350.822 207.48 351.196 207.48H352.316V209H350.876C350.054 209 349.425 208.808 348.988 208.424C348.55 208.04 348.332 207.416 348.332 206.552V201.672H347.292V200.184H348.332V197.992H350.172V200.184H352.316V201.672H350.172ZM358.557 200.04C359.229 200.04 359.826 200.184 360.349 200.472C360.882 200.76 361.298 201.187 361.597 201.752C361.906 202.317 362.061 203 362.061 203.8V209H360.253V204.072C360.253 203.283 360.056 202.68 359.661 202.264C359.266 201.837 358.728 201.624 358.045 201.624C357.362 201.624 356.818 201.837 356.413 202.264C356.018 202.68 355.821 203.283 355.821 204.072V209H353.997V197.16H355.821V201.208C356.13 200.835 356.52 200.547 356.989 200.344C357.469 200.141 357.992 200.04 358.557 200.04ZM373.636 200.632V202.168H365.124V200.632H373.636ZM373.636 204.264V205.8H365.124V204.264H373.636ZM376.17 204.552C376.17 203.667 376.351 202.883 376.714 202.2C377.087 201.517 377.589 200.989 378.218 200.616C378.858 200.232 379.567 200.04 380.346 200.04C380.922 200.04 381.487 200.168 382.042 200.424C382.607 200.669 383.055 201 383.386 201.416V197.16H385.226V209H383.386V207.672C383.087 208.099 382.671 208.451 382.138 208.728C381.615 209.005 381.013 209.144 380.33 209.144C379.562 209.144 378.858 208.952 378.218 208.568C377.589 208.173 377.087 207.629 376.714 206.936C376.351 206.232 376.17 205.437 376.17 204.552ZM383.386 204.584C383.386 203.976 383.258 203.448 383.002 203C382.757 202.552 382.431 202.211 382.026 201.976C381.621 201.741 381.183 201.624 380.714 201.624C380.245 201.624 379.807 201.741 379.402 201.976C378.997 202.2 378.666 202.536 378.41 202.984C378.165 203.421 378.042 203.944 378.042 204.552C378.042 205.16 378.165 205.693 378.41 206.152C378.666 206.611 378.997 206.963 379.402 207.208C379.818 207.443 380.255 207.56 380.714 207.56C381.183 207.56 381.621 207.443 382.026 207.208C382.431 206.973 382.757 206.632 383.002 206.184C383.258 205.725 383.386 205.192 383.386 204.584ZM395.702 204.376C395.702 204.707 395.681 205.005 395.638 205.272H388.902C388.955 205.976 389.217 206.541 389.686 206.968C390.155 207.395 390.731 207.608 391.414 207.608C392.395 207.608 393.089 207.197 393.494 206.376H395.462C395.195 207.187 394.71 207.853 394.006 208.376C393.313 208.888 392.449 209.144 391.414 209.144C390.571 209.144 389.814 208.957 389.142 208.584C388.481 208.2 387.958 207.667 387.574 206.984C387.201 206.291 387.014 205.491 387.014 204.584C387.014 203.677 387.195 202.883 387.558 202.2C387.931 201.507 388.449 200.973 389.11 200.6C389.782 200.227 390.55 200.04 391.414 200.04C392.246 200.04 392.987 200.221 393.638 200.584C394.289 200.947 394.795 201.459 395.158 202.12C395.521 202.771 395.702 203.523 395.702 204.376ZM393.798 203.8C393.787 203.128 393.547 202.589 393.078 202.184C392.609 201.779 392.027 201.576 391.334 201.576C390.705 201.576 390.166 201.779 389.718 202.184C389.27 202.579 389.003 203.117 388.918 203.8H393.798ZM400.905 207.368L403.401 200.184H405.337L401.977 209H399.801L396.457 200.184H398.409L400.905 207.368ZM407.644 199.016C407.313 199.016 407.036 198.904 406.812 198.68C406.588 198.456 406.476 198.179 406.476 197.848C406.476 197.517 406.588 197.24 406.812 197.016C407.036 196.792 407.313 196.68 407.644 196.68C407.964 196.68 408.236 196.792 408.46 197.016C408.684 197.24 408.796 197.517 408.796 197.848C408.796 198.179 408.684 198.456 408.46 198.68C408.236 198.904 407.964 199.016 407.644 199.016ZM408.54 200.184V209H406.716V200.184H408.54ZM410.326 204.584C410.326 203.677 410.508 202.883 410.87 202.2C411.244 201.507 411.756 200.973 412.406 200.6C413.057 200.227 413.804 200.04 414.646 200.04C415.713 200.04 416.593 200.296 417.286 200.808C417.99 201.309 418.465 202.029 418.71 202.968H416.742C416.582 202.531 416.326 202.189 415.974 201.944C415.622 201.699 415.18 201.576 414.646 201.576C413.9 201.576 413.302 201.843 412.854 202.376C412.417 202.899 412.198 203.635 412.198 204.584C412.198 205.533 412.417 206.275 412.854 206.808C413.302 207.341 413.9 207.608 414.646 207.608C415.702 207.608 416.401 207.144 416.742 206.216H418.71C418.454 207.112 417.974 207.827 417.27 208.36C416.566 208.883 415.692 209.144 414.646 209.144C413.804 209.144 413.057 208.957 412.406 208.584C411.756 208.2 411.244 207.667 410.87 206.984C410.508 206.291 410.326 205.491 410.326 204.584ZM428.608 204.376C428.608 204.707 428.587 205.005 428.544 205.272H421.808C421.861 205.976 422.123 206.541 422.592 206.968C423.061 207.395 423.637 207.608 424.32 207.608C425.301 207.608 425.995 207.197 426.4 206.376H428.368C428.101 207.187 427.616 207.853 426.912 208.376C426.219 208.888 425.355 209.144 424.32 209.144C423.477 209.144 422.72 208.957 422.048 208.584C421.387 208.2 420.864 207.667 420.48 206.984C420.107 206.291 419.92 205.491 419.92 204.584C419.92 203.677 420.101 202.883 420.464 202.2C420.837 201.507 421.355 200.973 422.016 200.6C422.688 200.227 423.456 200.04 424.32 200.04C425.152 200.04 425.893 200.221 426.544 200.584C427.195 200.947 427.701 201.459 428.064 202.12C428.427 202.771 428.608 203.523 428.608 204.376ZM426.704 203.8C426.693 203.128 426.453 202.589 425.984 202.184C425.515 201.779 424.933 201.576 424.24 201.576C423.611 201.576 423.072 201.779 422.624 202.184C422.176 202.579 421.909 203.117 421.824 203.8H426.704ZM437.171 202.44V203.976H430.595V202.44H437.171ZM451.603 200.184L448.867 209H446.947L445.171 202.488L443.395 209H441.475L438.723 200.184H440.579L442.419 207.272L444.291 200.184H446.195L447.987 207.24L449.811 200.184H451.603ZM453.894 199.016C453.563 199.016 453.286 198.904 453.062 198.68C452.838 198.456 452.726 198.179 452.726 197.848C452.726 197.517 452.838 197.24 453.062 197.016C453.286 196.792 453.563 196.68 453.894 196.68C454.214 196.68 454.486 196.792 454.71 197.016C454.934 197.24 455.046 197.517 455.046 197.848C455.046 198.179 454.934 198.456 454.71 198.68C454.486 198.904 454.214 199.016 453.894 199.016ZM454.79 200.184V209H452.966V200.184H454.79ZM456.576 204.552C456.576 203.667 456.758 202.883 457.12 202.2C457.494 201.517 457.995 200.989 458.624 200.616C459.264 200.232 459.974 200.04 460.752 200.04C461.328 200.04 461.894 200.168 462.448 200.424C463.014 200.669 463.462 201 463.792 201.416V197.16H465.632V209H463.792V207.672C463.494 208.099 463.078 208.451 462.544 208.728C462.022 209.005 461.419 209.144 460.736 209.144C459.968 209.144 459.264 208.952 458.624 208.568C457.995 208.173 457.494 207.629 457.12 206.936C456.758 206.232 456.576 205.437 456.576 204.552ZM463.792 204.584C463.792 203.976 463.664 203.448 463.408 203C463.163 202.552 462.838 202.211 462.432 201.976C462.027 201.741 461.59 201.624 461.12 201.624C460.651 201.624 460.214 201.741 459.808 201.976C459.403 202.2 459.072 202.536 458.816 202.984C458.571 203.421 458.448 203.944 458.448 204.552C458.448 205.16 458.571 205.693 458.816 206.152C459.072 206.611 459.403 206.963 459.808 207.208C460.224 207.443 460.662 207.56 461.12 207.56C461.59 207.56 462.027 207.443 462.432 207.208C462.838 206.973 463.163 206.632 463.408 206.184C463.664 205.725 463.792 205.192 463.792 204.584ZM470.156 201.672V206.552C470.156 206.883 470.231 207.123 470.38 207.272C470.54 207.411 470.807 207.48 471.18 207.48H472.3V209H470.86C470.039 209 469.409 208.808 468.972 208.424C468.535 208.04 468.316 207.416 468.316 206.552V201.672H467.276V200.184H468.316V197.992H470.156V200.184H472.3V201.672H470.156ZM478.541 200.04C479.213 200.04 479.811 200.184 480.333 200.472C480.867 200.76 481.283 201.187 481.581 201.752C481.891 202.317 482.045 203 482.045 203.8V209H480.237V204.072C480.237 203.283 480.04 202.68 479.645 202.264C479.251 201.837 478.712 201.624 478.029 201.624C477.347 201.624 476.803 201.837 476.397 202.264C476.003 202.68 475.805 203.283 475.805 204.072V209H473.981V197.16H475.805V201.208C476.115 200.835 476.504 200.547 476.973 200.344C477.453 200.141 477.976 200.04 478.541 200.04Z" fill="#A6CBFA"/>
<circle cx="27.5" cy="28" r="7.5" fill="#B02424"/>
<circle cx="52.5" cy="28" r="7.5" fill="#EAE33D"/>
<circle cx="77.5" cy="28" r="7.5" fill="#61DA42"/>
</svg>
