<svg width="167" height="163" viewBox="0 0 167 163" fill="none" xmlns="http://www.w3.org/2000/svg">
<g clip-path="url(#clip0_105_783)">
<path d="M79.4999 0H86.9699C104.555 0.945734 120.037 6.60159 133.417 16.9676C153.565 32.5815 164.494 53.5007 166.202 79.7254V87.2356C164.215 121.571 142.989 151.006 110.625 162.36C106.718 163.729 103.775 162.527 103.802 157.993C103.843 151.262 103.837 144.534 103.786 137.81C103.725 130.283 103.116 125.666 98.4405 120.47C98.4227 120.451 98.4107 120.427 98.4056 120.402C98.4006 120.376 98.4029 120.35 98.4121 120.325C98.4213 120.301 98.4372 120.28 98.4578 120.264C98.4785 120.248 98.5032 120.238 98.529 120.236C107.72 119.285 117.387 116.754 124.491 110.662C134.097 102.423 136.892 88.1368 135.934 75.7588C135.392 68.7715 132.681 62.5427 127.8 57.0723C127.671 56.9313 127.636 56.77 127.695 56.5883C130.019 49.2375 129.717 42.0073 126.788 34.8976C126.725 34.7418 126.611 34.6528 126.445 34.6305C119.528 33.7961 110.354 38.814 104.699 42.9307C104.547 43.0383 104.38 43.0995 104.195 43.1143C103.826 43.1366 103.467 43.1032 103.116 43.0142C89.6812 39.5576 76.2389 39.6003 62.7892 43.1422C62.6543 43.1787 62.513 43.1847 62.3752 43.1597C62.2374 43.1346 62.1067 43.0793 61.9924 42.9975C56.0939 38.8085 47.567 34.1299 40.0859 34.5749C39.8794 34.586 39.7373 34.688 39.6599 34.8809C36.7936 41.9832 36.4874 49.1986 38.7413 56.5271C38.8004 56.7125 38.7653 56.8794 38.6362 57.0277C33.6931 62.7726 30.9559 69.3223 30.4247 76.6768C29.9821 82.8685 30.8121 90.2341 32.7764 96.3369C37.9279 112.309 52.1818 118.873 67.7581 120.27C67.8005 120.273 67.8409 120.289 67.8747 120.315C67.9086 120.341 67.9345 120.376 67.9495 120.416C67.9645 120.456 67.968 120.5 67.9596 120.542C67.9512 120.584 67.9312 120.622 67.902 120.653C65.1021 123.591 63.4698 127.101 63.005 131.184C62.9949 131.285 62.959 131.38 62.9007 131.462C62.8425 131.544 62.764 131.61 62.673 131.652C58.2906 133.74 53.7219 134.279 48.9669 133.271C48.7161 133.215 48.6478 133.304 48.7622 133.538L49.1717 134.344C49.2749 134.552 49.2362 134.726 49.0555 134.867C47.0026 136.464 44.0146 133.782 46.5212 132.809C46.9602 132.635 46.962 132.455 46.5267 132.269C41.3641 130.066 39.7705 125.749 36.4561 121.705C33.9439 118.64 26.1419 113.705 22.3129 117.204C22.169 117.334 22.1284 117.49 22.1911 117.672C22.7887 119.452 24.7918 120.559 26.2249 121.599C29.5062 123.997 31.9187 127.246 33.6119 130.917C34.9067 133.714 35.6796 135.303 35.9304 135.685C42.0724 145.053 52.6079 144.758 62.258 143.251C62.4609 143.221 62.5623 143.308 62.5623 143.512C62.6029 148.104 62.6601 152.712 62.7339 157.337C62.8169 162.438 60.0225 163.896 55.3579 162.188C22.8275 150.288 1.37473 120.509 0.20166 85.639V81.3275C2.15493 36.9281 35.2553 2.55348 79.4999 0Z" fill="black"/>
<path d="M29.8452 119.183C30.4502 119.498 31.106 119.433 31.3099 119.038C31.5139 118.642 31.1887 118.066 30.5837 117.751C29.9786 117.436 29.3228 117.501 29.1189 117.896C28.915 118.292 29.2402 118.868 29.8452 119.183Z" fill="#161614"/>
<path d="M33.7558 122.289C34.3379 122.846 35.107 122.984 35.4737 122.597C35.8404 122.21 35.6658 121.444 35.0838 120.887C34.5017 120.33 33.7326 120.192 33.3659 120.579C32.9992 120.966 33.1738 121.732 33.7558 122.289Z" fill="#161614"/>
<path d="M36.3499 126.649C36.8736 127.41 37.7197 127.733 38.2398 127.371C38.7599 127.009 38.757 126.099 38.2333 125.338C37.7097 124.578 36.8636 124.255 36.3435 124.617C35.8234 124.979 35.8263 125.889 36.3499 126.649Z" fill="#161614"/>
<path d="M40.8243 132.471C41.5715 133.147 42.5502 133.279 43.0102 132.765C43.4703 132.251 43.2376 131.287 42.4904 130.61C41.7433 129.934 40.7646 129.802 40.3045 130.316C39.8444 130.829 40.0771 131.794 40.8243 132.471Z" fill="#161614"/>
<path d="M61.3065 136.655C62.3245 136.499 63.0654 135.818 62.9614 135.134C62.8574 134.451 61.9478 134.024 60.9298 134.181C59.9118 134.337 59.1709 135.018 59.2749 135.702C59.3789 136.385 60.2885 136.812 61.3065 136.655Z" fill="#161614"/>
<path d="M54.2954 136.636C55.316 136.622 56.136 136.077 56.1269 135.42C56.1177 134.762 55.283 134.241 54.2624 134.255C53.2418 134.27 52.4218 134.814 52.431 135.472C52.4401 136.129 53.2749 136.65 54.2954 136.636Z" fill="#161614"/>
</g>
<defs>
<clipPath id="clip0_105_783">
<rect width="166" height="163" fill="white" transform="translate(0.20166)"/>
</clipPath>
</defs>
</svg>
