<svg width="170" height="170" viewBox="0 0 170 170" fill="none" xmlns="http://www.w3.org/2000/svg">
<path d="M25.2835 151.242L11.9956 2.20605H158.004L144.702 151.219L84.911 167.794L25.2835 151.242Z" fill="#E44D26"/>
<path d="M85 155.125L133.315 141.73L144.682 14.3916H85V155.125Z" fill="#F16529"/>
<path d="M85 69.6669H60.8121L59.1414 50.9483H85V32.6707H39.165L39.6033 37.5741L44.095 87.9459H85V69.6669ZM85 117.138L84.9189 117.161L64.5628 111.662L63.2625 97.086H44.9118L47.4725 125.785L84.9163 136.179L85 136.157V117.138Z" fill="#EBEBEB"/>
<path d="M84.9363 69.6669V87.9459H107.444L105.323 111.652L84.9363 117.154V136.171L122.409 125.785L122.684 122.698L126.979 74.5757L127.424 69.6669H122.5H84.9363ZM84.9363 32.6707V50.9483H129.088L129.455 46.8417L130.289 37.5741L130.726 32.6707H84.9363Z" fill="white"/>
</svg>
