<svg width="31" height="31" viewBox="0 0 31 31" fill="none" xmlns="http://www.w3.org/2000/svg">
<path d="M8.10369 30.4116C6.94331 30.3987 5.79385 30.1859 4.70575 29.7825C3.91118 29.4888 3.19228 29.0212 2.60163 28.414C1.99274 27.8245 1.52448 27.1055 1.23163 26.3102C0.828618 25.2221 0.616097 24.0728 0.603397 22.9125C0.514279 20.9837 0.496338 20.4052 0.496338 15.5178C0.496338 10.6305 0.516044 10.054 0.602514 8.1237C0.616756 6.96393 0.829539 5.81517 1.23163 4.72723C1.52591 3.93253 1.9935 3.21335 2.60046 2.62194C3.19038 2.0136 3.90961 1.54577 4.70487 1.25312C5.79296 0.849768 6.94243 0.636948 8.10281 0.623999C10.0322 0.535763 10.6116 0.517822 15.4963 0.517822C20.381 0.517822 20.9602 0.537528 22.8905 0.623999C24.0505 0.63814 25.1996 0.850924 26.2878 1.25312C27.0827 1.54616 27.8018 2.01382 28.3919 2.62165C28.9999 3.21201 29.4678 3.93123 29.761 4.72635C30.1645 5.81443 30.3774 6.9639 30.3905 8.12429C30.4787 10.0546 30.4966 10.6325 30.4966 15.5184C30.4966 20.4043 30.4787 20.9822 30.3905 22.9125C30.3765 24.0727 30.1636 25.2219 29.761 26.3102C29.4566 27.0993 28.9902 27.816 28.392 28.4141C27.7938 29.0121 27.0771 29.4783 26.2878 29.7825C25.1997 30.186 24.0503 30.3989 22.8899 30.4119C20.9613 30.5002 20.3816 30.5181 15.4958 30.5181C10.6099 30.5181 10.0322 30.5008 8.10369 30.4116Z" fill="url(#paint0_radial_111_43)"/>
<path d="M8.10369 30.4116C6.94331 30.3987 5.79385 30.1859 4.70575 29.7825C3.91118 29.4888 3.19228 29.0212 2.60163 28.414C1.99274 27.8245 1.52448 27.1055 1.23163 26.3102C0.828618 25.2221 0.616097 24.0728 0.603397 22.9125C0.514279 20.9837 0.496338 20.4052 0.496338 15.5178C0.496338 10.6305 0.516044 10.054 0.602514 8.1237C0.616756 6.96393 0.829539 5.81517 1.23163 4.72723C1.52591 3.93253 1.9935 3.21335 2.60046 2.62194C3.19038 2.0136 3.90961 1.54577 4.70487 1.25312C5.79296 0.849768 6.94243 0.636948 8.10281 0.623999C10.0322 0.535763 10.6116 0.517822 15.4963 0.517822C20.381 0.517822 20.9602 0.537528 22.8905 0.623999C24.0505 0.63814 25.1996 0.850924 26.2878 1.25312C27.0827 1.54616 27.8018 2.01382 28.3919 2.62165C28.9999 3.21201 29.4678 3.93123 29.761 4.72635C30.1645 5.81443 30.3774 6.9639 30.3905 8.12429C30.4787 10.0546 30.4966 10.6325 30.4966 15.5184C30.4966 20.4043 30.4787 20.9822 30.3905 22.9125C30.3765 24.0727 30.1636 25.2219 29.761 26.3102C29.4566 27.0993 28.9902 27.816 28.392 28.4141C27.7938 29.0121 27.0771 29.4783 26.2878 29.7825C25.1997 30.186 24.0503 30.3989 22.8899 30.4119C20.9613 30.5002 20.3816 30.5181 15.4958 30.5181C10.6099 30.5181 10.0322 30.5008 8.10369 30.4116Z" fill="url(#paint1_radial_111_43)"/>
<path d="M11.8131 15.5816C11.8132 14.8469 12.0311 14.1286 12.4394 13.5177C12.8477 12.9068 13.4279 12.4307 14.1068 12.1496C14.7856 11.8685 15.5326 11.795 16.2533 11.9384C16.9739 12.0818 17.6358 12.4357 18.1553 12.9553C18.6748 13.475 19.0286 14.137 19.1718 14.8577C19.3151 15.5783 19.2414 16.3253 18.9601 17.0041C18.6788 17.6829 18.2026 18.263 17.5916 18.6712C16.9806 19.0793 16.2623 19.2971 15.5275 19.2969C14.5423 19.2968 13.5975 18.9053 12.9009 18.2085C12.2043 17.5118 11.813 16.5669 11.8131 15.5816ZM9.80457 15.5816C9.80457 16.7135 10.1402 17.82 10.7691 18.7611C11.3979 19.7023 12.2917 20.4358 13.3374 20.869C14.3832 21.3021 15.5339 21.4154 16.644 21.1946C17.7541 20.9738 18.7739 20.4287 19.5742 19.6284C20.3746 18.828 20.9197 17.8083 21.1405 16.6981C21.3613 15.588 21.248 14.4373 20.8148 13.3916C20.3817 12.3458 19.6481 11.452 18.707 10.8232C17.7659 10.1943 16.6594 9.8587 15.5275 9.8587C14.776 9.85866 14.0318 10.0067 13.3374 10.2943C12.643 10.5818 12.0121 11.0034 11.4807 11.5348C10.9493 12.0663 10.5277 12.6972 10.2401 13.3915C9.95254 14.0859 9.80454 14.8301 9.80457 15.5816ZM20.1396 9.63194C20.1395 9.89644 20.2178 10.155 20.3646 10.375C20.5115 10.595 20.7203 10.7665 20.9646 10.8679C21.2089 10.9692 21.4778 10.9958 21.7373 10.9443C21.9967 10.8928 22.2351 10.7655 22.4222 10.5786C22.6093 10.3916 22.7368 10.1534 22.7885 9.89401C22.8402 9.63461 22.8138 9.3657 22.7127 9.12129C22.6116 8.87687 22.4403 8.66794 22.2204 8.52089C22.0005 8.37384 21.742 8.29529 21.4775 8.29518C21.123 8.29533 20.783 8.4362 20.5322 8.68684C20.2815 8.93749 20.1399 9.2774 20.1396 9.63194ZM11.0255 24.6537C10.3187 24.6459 9.6186 24.5166 8.95575 24.2714C8.47503 24.0861 8.03845 23.8022 7.67408 23.438C7.30971 23.0738 7.02565 22.6373 6.84016 22.1566C6.5948 21.4938 6.46546 20.7937 6.45781 20.0869C6.40369 18.9122 6.3931 18.5593 6.3931 15.5831C6.3931 12.6069 6.40487 12.2549 6.45781 11.079C6.46638 10.3724 6.59569 9.67236 6.84016 9.00929C7.02543 8.52843 7.30942 8.09173 7.6738 7.72734C8.03819 7.36296 8.47488 7.07897 8.95575 6.8937C9.61857 6.64835 10.3187 6.51901 11.0255 6.51135C12.2002 6.45724 12.5531 6.44665 15.5281 6.44665C18.5031 6.44665 18.8563 6.45812 20.0322 6.51165C20.7389 6.52022 21.4389 6.64953 22.1019 6.894C22.5828 7.07929 23.0195 7.36327 23.3839 7.72766C23.7482 8.09204 24.0322 8.52873 24.2175 9.00959C24.4629 9.67242 24.5922 10.3726 24.5999 11.0793C24.654 12.2558 24.6646 12.6069 24.6646 15.5834C24.6646 18.5599 24.6537 18.9116 24.5999 20.0875C24.5916 20.7942 24.4623 21.4943 24.2175 22.1572C24.032 22.6379 23.748 23.0743 23.3836 23.4386C23.0192 23.8028 22.5826 24.0867 22.1019 24.2719C21.4391 24.5173 20.739 24.6466 20.0322 24.6543C18.8575 24.7084 18.5046 24.719 15.5281 24.719C12.5516 24.719 12.1999 24.7075 11.0255 24.6537ZM10.9331 4.50459C10.0084 4.52277 9.09339 4.6978 8.22722 5.02223C7.48678 5.30852 6.81433 5.74637 6.25299 6.30771C5.69165 6.86905 5.2538 7.5415 4.96751 8.28194C4.64313 9.14812 4.4681 10.0631 4.44987 10.9878C4.39487 12.1761 4.38252 12.5561 4.38252 15.5828C4.38252 18.6096 4.39516 18.9893 4.44987 20.1778C4.46809 21.1026 4.64312 22.0175 4.96751 22.8837C5.25381 23.6241 5.69167 24.2966 6.25301 24.8579C6.81435 25.4193 7.48679 25.8571 8.22722 26.1434C9.09343 26.4677 10.0084 26.6427 10.9331 26.6611C12.1219 26.7152 12.5013 26.7284 15.5281 26.7284C18.5549 26.7284 18.9346 26.7158 20.1231 26.6611C21.0479 26.6428 21.9628 26.4678 22.829 26.1434C23.5694 25.8571 24.2419 25.4193 24.8032 24.8579C25.3645 24.2966 25.8024 23.6241 26.0887 22.8837C26.4135 22.0176 26.5886 21.1026 26.6063 20.1778C26.6605 18.9887 26.6728 18.6096 26.6728 15.5828C26.6728 12.5561 26.6602 12.1764 26.6063 10.9878C26.5882 10.0631 26.4131 9.14811 26.0887 8.28194C25.8024 7.54164 25.3647 6.8693 24.8035 6.30797C24.2423 5.74665 23.5701 5.30871 22.8299 5.02223C21.9638 4.69759 21.0488 4.52255 20.124 4.50459C18.9355 4.45018 18.5557 4.43723 15.5296 4.43723C12.5034 4.43723 12.1222 4.44988 10.9331 4.50459Z" fill="white"/>
<defs>
<radialGradient id="paint0_radial_111_43" cx="0" cy="0" r="1" gradientUnits="userSpaceOnUse" gradientTransform="translate(2.43781 29.8608) scale(38.0888)">
<stop offset="0.09" stop-color="#FA8F21"/>
<stop offset="0.78" stop-color="#D82D7E"/>
</radialGradient>
<radialGradient id="paint1_radial_111_43" cx="0" cy="0" r="1" gradientUnits="userSpaceOnUse" gradientTransform="translate(21.2763 28.8972) scale(33.5185)">
<stop offset="0.64" stop-color="#8C3AAA" stop-opacity="0"/>
<stop offset="1" stop-color="#8C3AAA"/>
</radialGradient>
</defs>
</svg>
