<svg width="171" height="188" viewBox="0 0 171 188" fill="none" xmlns="http://www.w3.org/2000/svg">
<mask id="mask0_102_670" style="mask-type:alpha" maskUnits="userSpaceOnUse" x="0" y="0" width="171" height="188">
<path d="M108.812 121.277C101.768 121.964 94.6732 120.672 88.3239 117.547C86.8857 116.396 85.6986 114.963 84.8359 113.335C83.9733 111.708 83.4533 109.921 83.3083 108.085C83.3053 107.81 83.2479 107.538 83.1394 107.286C83.0308 107.034 82.8733 106.805 82.6759 106.614C82.4784 106.423 82.2451 106.273 81.9893 106.172C81.7334 106.072 81.4603 106.023 81.1855 106.029C78.2201 105.993 75.2552 106.001 72.2903 106.025C71.7721 105.972 71.254 106.126 70.8483 106.453C70.4426 106.779 70.182 107.253 70.123 107.77C69.9539 110.992 70.4985 114.211 71.7179 117.198C72.9372 120.184 74.8012 122.865 77.1767 125.048C83.1733 129.727 90.4546 132.466 98.0486 132.899C105.961 133.817 113.969 133.477 121.776 131.892C127.77 130.773 133.265 127.812 137.495 123.42C139.834 120.537 141.401 117.107 142.05 113.452C142.699 109.797 142.408 106.037 141.205 102.525C140.194 100.049 138.63 97.838 136.632 96.0608C134.634 94.2836 132.256 92.9876 129.68 92.2723C117.683 88.0629 104.723 88.3812 92.4932 85.1825C90.3699 84.5142 87.7755 83.7888 86.8294 81.5408C86.2824 79.9589 86.245 78.2454 86.7225 76.6412C87.2 75.037 88.1683 73.6228 89.4912 72.5975C93.3313 70.4029 97.704 69.3142 102.125 69.452C108.125 68.8872 114.173 69.7526 119.773 71.9772C121.456 72.9667 122.903 74.3105 124.014 75.9154C125.125 77.5203 125.873 79.3478 126.206 81.2709C126.222 81.8385 126.45 82.3795 126.844 82.7879C127.239 83.1963 127.772 83.4425 128.338 83.4782C131.283 83.5383 134.228 83.4943 137.172 83.4983C137.683 83.5594 138.198 83.4341 138.624 83.1454C139.05 82.8568 139.357 82.4242 139.489 81.9273C139.515 77.9558 138.503 74.0464 136.554 70.5864C134.604 67.1263 131.784 64.2356 128.374 62.2007C118.96 57.8562 108.511 56.2573 98.2292 57.5881C90.6958 57.8969 83.4982 60.7882 77.8455 65.7776C75.2504 68.5746 73.493 72.0443 72.7737 75.7914C72.0543 79.5385 72.4019 83.4122 73.7767 86.9714C74.8469 89.3557 76.4214 91.4795 78.3916 93.1965C80.3618 94.9134 82.681 96.1827 85.1891 96.9169C97.1458 101.236 110.251 99.8497 122.323 103.669C124.676 104.467 127.416 105.687 128.136 108.306C128.524 109.875 128.494 111.518 128.051 113.073C127.608 114.627 126.767 116.039 125.611 117.168C120.59 120.288 114.706 121.727 108.812 121.277ZM163.317 42.1707C139.972 28.9696 116.622 15.7805 93.2669 2.60332C90.9235 1.29298 88.2835 0.60498 85.5986 0.60498C82.9137 0.60498 80.2737 1.29298 77.9303 2.60332C54.6659 15.7407 31.4003 28.8774 8.13354 42.0135C5.87009 43.2472 3.97795 45.064 2.65339 47.2755C1.32883 49.4871 0.620095 52.0127 0.600708 54.5905V133.968C0.637962 136.592 1.38486 139.158 2.76218 141.392C4.13951 143.627 6.09592 145.447 8.42392 146.66C15.1073 150.297 21.6007 154.306 28.4051 157.702C32.3325 159.801 36.6946 160.958 41.1462 161.08C45.5979 161.203 50.0169 160.287 54.0537 158.407C57.0742 156.514 59.532 153.847 61.1709 150.682C62.8099 147.517 63.57 143.97 63.372 140.411C63.424 114.215 63.38 88.0178 63.392 61.821C63.4376 61.5346 63.4221 61.2418 63.3467 60.9618C63.2713 60.6817 63.1375 60.4208 62.9542 60.196C62.7709 59.9713 62.5422 59.7878 62.2831 59.6576C62.0239 59.5274 61.7402 59.4534 61.4505 59.4404C58.4775 59.3924 55.5001 59.4123 52.5272 59.4325C52.252 59.4078 51.9746 59.4415 51.7133 59.5315C51.452 59.6215 51.2127 59.7658 51.011 59.9548C50.8094 60.1438 50.6499 60.3732 50.5432 60.6282C50.4364 60.8831 50.3848 61.1577 50.3916 61.434C50.3516 87.4622 50.3997 113.498 50.3676 139.53C50.3744 141.327 49.8316 143.083 48.812 144.562C47.7924 146.042 46.3447 147.174 44.6632 147.808C42.7269 148.38 40.6915 148.537 38.6902 148.27C36.6889 148.002 34.7666 147.315 33.0489 146.253C26.8573 142.756 20.6658 139.26 14.4744 135.763C14.0642 135.569 13.7234 135.253 13.4979 134.859C13.2724 134.465 13.1731 134.012 13.2133 133.559C13.2133 107.371 13.2133 81.1834 13.2133 54.9972C13.1702 54.4878 13.2893 53.9778 13.5534 53.5401C13.8175 53.1024 14.2132 52.7593 14.6839 52.5599C37.8719 39.5001 61.0556 26.4266 84.2347 13.3394C84.6373 13.0645 85.1137 12.9177 85.6012 12.9185C86.0887 12.9192 86.5646 13.0673 86.9664 13.3435C110.154 26.4074 133.34 39.4758 156.525 52.5488C156.993 52.7538 157.386 53.0999 157.648 53.5389C157.911 53.9779 158.029 54.4879 157.987 54.9975C157.983 81.1815 157.981 107.368 157.979 133.556C158.02 134.01 157.923 134.466 157.701 134.864C157.479 135.262 157.142 135.584 156.734 135.788C133.901 148.699 111.056 161.591 88.199 174.465C87.107 175.073 85.8144 176.052 84.5372 175.315C78.5508 171.926 72.6376 168.406 66.6713 164.986C66.3663 164.752 65.9986 164.615 65.6153 164.592C65.2321 164.569 64.8506 164.661 64.5199 164.856C61.892 166.396 59.1258 167.687 56.2576 168.712C54.9644 169.236 53.3734 169.385 52.4832 170.584C53.6178 171.819 54.9924 172.809 56.5229 173.494C63.5006 177.534 70.4821 181.571 77.4672 185.604C79.7774 187.054 82.4343 187.86 85.1613 187.935C87.8883 188.011 90.5857 187.355 92.973 186.035C116.241 172.915 139.508 159.789 162.773 146.657C165.1 145.442 167.055 143.622 168.432 141.389C169.81 139.155 170.559 136.591 170.601 133.967V54.5905C170.581 52.0636 169.898 49.5862 168.62 47.4065C167.341 45.2267 165.512 43.4212 163.317 42.1707Z" fill="black"/>
</mask>
<g mask="url(#mask0_102_670)">
<rect x="0.600708" y="0.60498" width="170" height="187.336" fill="#DAB92D"/>
</g>
</svg>
