<svg width="31" height="31" viewBox="0 0 31 31" fill="none" xmlns="http://www.w3.org/2000/svg">
<path d="M23.7698 0.767822H7.23705C3.51817 0.767822 0.503418 3.78257 0.503418 7.50146V24.0342C0.503418 27.7531 3.51817 30.7678 7.23705 30.7678H23.7698C27.4887 30.7678 30.5034 27.7531 30.5034 24.0342V7.50146C30.5034 3.78257 27.4887 0.767822 23.7698 0.767822Z" fill="#0B86CA"/>
<path d="M8.81655 13.2375H11.934V23.2964H8.81655V13.2375ZM10.4064 8.23925C10.7636 8.23925 11.1128 8.34504 11.4099 8.54326C11.707 8.74148 11.9387 9.02326 12.0759 9.35304C12.213 9.68282 12.2494 10.0458 12.1805 10.3963C12.1116 10.7467 11.9404 11.0689 11.6886 11.3222C11.4368 11.5755 11.1156 11.7485 10.7655 11.8194C10.4155 11.8904 10.0522 11.856 9.72167 11.7208C9.39111 11.5855 9.10801 11.3554 8.90809 11.0594C8.70816 10.7635 8.60038 10.4149 8.59833 10.0577C8.59696 9.81943 8.64271 9.58319 8.73297 9.36262C8.82322 9.14205 8.95619 8.9415 9.12422 8.7725C9.29225 8.6035 9.49204 8.46938 9.71209 8.37787C9.93214 8.28635 10.1681 8.23924 10.4064 8.23925Z" fill="white"/>
<path d="M13.9291 13.2375H16.9322V14.6092C17.2329 14.0962 17.6671 13.6744 18.1887 13.3889C18.7103 13.1034 19.2996 12.9649 19.8938 12.9881C23.0112 12.9881 23.6451 15.0664 23.6451 17.7786V23.2964H20.5277V18.4332C20.5277 17.2694 20.5277 15.7626 18.9066 15.7626C17.2855 15.7626 17.0361 17.0304 17.0361 18.3397V23.3172H13.9187L13.9291 13.2375Z" fill="white"/>
</svg>
