<svg width="23" height="13" viewBox="0 0 23 13" fill="none" xmlns="http://www.w3.org/2000/svg">
<path d="M22.1855 6.78529C22.373 6.59776 22.4783 6.34345 22.4783 6.07829C22.4783 5.81312 22.373 5.55882 22.1855 5.37129L17.1855 0.371288C16.9969 0.18913 16.7443 0.0883356 16.4821 0.090614C16.2199 0.0928924 15.9691 0.198062 15.7837 0.38347C15.5983 0.568878 15.4931 0.81969 15.4908 1.08189C15.4886 1.34408 15.5894 1.59669 15.7715 1.78529L19.0645 5.07829H1.47852C1.2133 5.07829 0.958945 5.18365 0.771409 5.37118C0.583872 5.55872 0.478516 5.81307 0.478516 6.07829C0.478516 6.3435 0.583872 6.59786 0.771409 6.78539C0.958945 6.97293 1.2133 7.07829 1.47852 7.07829H19.0645L15.7715 10.3713C15.5894 10.5599 15.4886 10.8125 15.4908 11.0747C15.4931 11.3369 15.5983 11.5877 15.7837 11.7731C15.9691 11.9585 16.2199 12.0637 16.4821 12.066C16.7443 12.0682 16.9969 11.9674 17.1855 11.7853L22.1855 6.78529Z" fill="#03DAC6"/>
</svg>
