<svg width="31" height="31" viewBox="0 0 31 31" fill="none" xmlns="http://www.w3.org/2000/svg">
<path d="M30.5034 15.5178C30.5034 7.23355 23.7877 0.517822 15.5034 0.517822C7.21915 0.517822 0.503418 7.23355 0.503418 15.5178C0.503418 23.8021 7.21915 30.5178 15.5034 30.5178C23.7877 30.5178 30.5034 23.8021 30.5034 15.5178Z" fill="#419FD9"/>
<path d="M30.5034 15.5178C30.5034 7.23355 23.7877 0.517822 15.5034 0.517822C7.21915 0.517822 0.503418 7.23355 0.503418 15.5178C0.503418 23.8021 7.21915 30.5178 15.5034 30.5178C23.7877 30.5178 30.5034 23.8021 30.5034 15.5178Z" fill="url(#paint0_linear_111_44)"/>
<path d="M7.24554 15.1871C11.6076 13.2468 14.5163 11.9675 15.9717 11.3494C20.1271 9.5847 20.9906 9.27814 21.5534 9.26795C21.6772 9.26582 21.9539 9.29713 22.1332 9.44563C22.2846 9.57107 22.3262 9.74051 22.3462 9.85938C22.3661 9.97832 22.3909 10.2492 22.3712 10.4608C22.146 12.8766 21.1717 18.739 20.6759 21.4447C20.4662 22.5896 20.0532 22.9734 19.6534 23.011C18.7844 23.0926 18.1245 22.4247 17.283 21.8614C15.966 20.98 15.222 20.4313 13.9437 19.5712C12.4664 18.5772 13.424 18.0309 14.266 17.138C14.4863 16.9044 18.3149 13.3488 18.389 13.0263C18.3982 12.9859 18.4069 12.8355 18.3194 12.7561C18.2319 12.6768 18.1027 12.7039 18.0095 12.7254C17.8775 12.7561 15.7736 14.1759 11.698 16.9849C11.1008 17.4036 10.5599 17.6075 10.0753 17.5968C9.54104 17.5851 8.51336 17.2884 7.74936 17.0349C6.81229 16.7238 6.06751 16.5594 6.13236 16.0313C6.16614 15.7561 6.53719 15.4748 7.24554 15.1871Z" fill="white"/>
<defs>
<linearGradient id="paint0_linear_111_44" x1="15.5034" y1="0.517822" x2="15.5034" y2="30.2953" gradientUnits="userSpaceOnUse">
<stop stop-color="#2AABEE"/>
<stop offset="1" stop-color="#229ED9"/>
</linearGradient>
</defs>
</svg>
