<svg width="171" height="170" viewBox="0 0 171 170" fill="none" xmlns="http://www.w3.org/2000/svg">
<g clip-path="url(#clip0_105_795)">
<path d="M169.479 25.1601L89.6232 167.782C87.9721 170.723 83.7424 170.74 82.0658 167.816L0.618954 25.1771C-1.20232 21.9811 1.52959 18.1136 5.15512 18.7596L85.0956 33.0311C85.6062 33.1246 86.1253 33.1246 86.636 33.0311L164.908 18.7851C168.517 18.1221 171.266 21.9641 169.479 25.1601Z" fill="url(#paint0_linear_105_795)"/>
<path d="M123.181 0.0424049L64.0828 11.6109C63.1126 11.7979 62.3892 12.6224 62.3296 13.6084L58.6955 74.9274C58.6104 76.3724 59.9381 77.4944 61.3509 77.1714L77.8019 73.3804C79.3423 73.0234 80.7296 74.3834 80.4147 75.9304L75.5296 99.8239C75.1977 101.43 76.7126 102.807 78.287 102.331L88.4487 99.2459C90.0232 98.7699 91.5381 100.147 91.2062 101.762L83.436 139.315C82.9509 141.661 86.0743 142.944 87.3849 140.93L88.253 139.587L136.415 43.6049C137.223 41.9984 135.827 40.1624 134.066 40.5024L117.13 43.7664C115.538 44.0724 114.185 42.5934 114.636 41.0379L125.691 2.7624C126.134 1.2154 124.772 -0.272095 123.181 0.0424049Z" fill="url(#paint1_linear_105_795)"/>
</g>
<defs>
<linearGradient id="paint0_linear_105_795" x1="42.4897" y1="-18.5893" x2="141.717" y2="116.338" gradientUnits="userSpaceOnUse">
<stop stop-color="#41D1FF"/>
<stop offset="1" stop-color="#BD34FE"/>
</linearGradient>
<linearGradient id="paint1_linear_105_795" x1="89.3565" y1="1.89353" x2="107.291" y2="125.079" gradientUnits="userSpaceOnUse">
<stop stop-color="#FFEA83"/>
<stop offset="0.083" stop-color="#FFDD35"/>
<stop offset="1" stop-color="#FFA800"/>
</linearGradient>
<clipPath id="clip0_105_795">
<rect width="170" height="170" fill="white" transform="translate(0.0402832)"/>
</clipPath>
</defs>
</svg>
