<svg width="170" height="180" viewBox="0 0 170 180" fill="none" xmlns="http://www.w3.org/2000/svg">
<path d="M34.1062 12.231L84.8725 105.052C84.9603 105.214 85.0481 105.214 85.136 105.052C102.031 74.3355 118.851 43.623 135.596 12.915C135.77 12.5955 135.745 12.528 135.681 12.168" stroke="#3B8171" stroke-width="2"/>
<path d="M34.1063 12.2309L84.8726 105.052C84.9604 105.214 85.0482 105.214 85.1361 105.052C102.031 74.3354 118.851 43.6229 135.596 12.9149C135.771 12.5954 135.745 12.5279 135.681 12.1679C146.975 12.1619 158.27 12.1559 169.567 12.1499C169.864 12.1499 169.779 12.1949 170 12.2894C170 12.3284 170 12.3659 170 12.4019C169.779 12.3704 92.2718 154.161 85.1233 167.215C85.1104 167.238 85.0923 167.256 85.0707 167.269C85.0491 167.282 85.0248 167.289 85.0001 167.289C84.9753 167.289 84.951 167.282 84.9294 167.269C84.9078 167.256 84.8897 167.238 84.8768 167.215L0.140302 12.4469C0.0411354 12.2609 0.0921354 12.1694 0.293302 12.1724L34.1063 12.2309Z" fill="#41B883"/>
<path d="M34.1062 12.231L65.2715 12.168C65.4131 12.168 65.5194 12.231 65.5902 12.357L84.8002 47.466C84.8202 47.5035 84.8492 47.5346 84.8843 47.5563C84.9194 47.578 84.9593 47.5894 85 47.5894C85.0406 47.5894 85.0805 47.578 85.1156 47.5563C85.1507 47.5346 85.1797 47.5035 85.1997 47.466L104.414 12.357C104.448 12.2954 104.496 12.2443 104.554 12.2087C104.612 12.1732 104.678 12.1545 104.745 12.1545L135.681 12.168C135.745 12.528 135.77 12.5955 135.596 12.915C118.851 43.623 102.031 74.3355 85.136 105.053C85.0481 105.215 84.9603 105.215 84.8725 105.053L34.1062 12.231Z" fill="#35495E"/>
</svg>
